{
	"patcher" : 	{
		"fileversion" : 1,
		"appversion" : 		{
			"major" : 6,
			"minor" : 1,
			"revision" : 7,
			"architecture" : "x86"
		}
,
		"rect" : [ 50.0, 94.0, 1140.0, 518.0 ],
		"bglocked" : 0,
		"openinpresentation" : 1,
		"default_fontsize" : 12.0,
		"default_fontface" : 0,
		"default_fontname" : "Arial",
		"gridonopen" : 0,
		"gridsize" : [ 15.0, 15.0 ],
		"gridsnaponopen" : 0,
		"statusbarvisible" : 0,
		"toolbarvisible" : 1,
		"boxanimatetime" : 200,
		"imprint" : 0,
		"enablehscroll" : 1,
		"enablevscroll" : 1,
		"devicewidth" : 0.0,
		"description" : "",
		"digest" : "",
		"tags" : "",
		"title" : "Compressor",
		"boxes" : [ 			{
				"box" : 				{
					"fontname" : "Arial",
					"fontsize" : 12.0,
					"frgb" : 0.0,
					"id" : "obj-58",
					"maxclass" : "comment",
					"numinlets" : 1,
					"numoutlets" : 0,
					"patching_rect" : [ 364.0, 31.0, 150.0, 20.0 ],
					"presentation" : 1,
					"presentation_rect" : [ 167.0, 110.0, 51.0, 20.0 ],
					"text" : "Presets"
				}

			}
, 			{
				"box" : 				{
					"fontname" : "Arial",
					"fontsize" : 12.0,
					"id" : "obj-2",
					"maxclass" : "newobj",
					"numinlets" : 1,
					"numoutlets" : 1,
					"outlettype" : [ "" ],
					"patching_rect" : [ 380.255035, 18.972225, 72.0, 20.0 ],
					"text" : "loadmess 1"
				}

			}
, 			{
				"box" : 				{
					"id" : "obj-3",
					"maxclass" : "levelmeter~",
					"numinlets" : 1,
					"numoutlets" : 1,
					"outlettype" : [ "int" ],
					"patching_rect" : [ 34.122898, 321.435913, 64.0, 32.0 ],
					"presentation" : 1,
					"presentation_rect" : [ 21.5, 23.0, 116.0, 58.0 ]
				}

			}
, 			{
				"box" : 				{
					"id" : "obj-48",
					"maxclass" : "toggle",
					"numinlets" : 1,
					"numoutlets" : 1,
					"outlettype" : [ "int" ],
					"parameter_enable" : 0,
					"patching_rect" : [ 180.350815, 165.666199, 20.0, 20.0 ]
				}

			}
, 			{
				"box" : 				{
					"fontsize" : 12.754706,
					"id" : "obj-44",
					"margin" : 4,
					"maxclass" : "preset",
					"numinlets" : 1,
					"numoutlets" : 4,
					"outlettype" : [ "preset", "int", "preset", "int" ],
					"patching_rect" : [ 364.961304, 61.972225, 88.823517, 20.0 ],
					"presentation" : 1,
					"presentation_rect" : [ 167.93103, 125.825378, 67.823517, 18.0 ],
					"preset_data" : [ 						{
							"number" : 1,
							"data" : [ 5, "obj-26", "flonum", "float", -24.0, 5, "obj-27", "flonum", "float", 8.0, 5, "obj-28", "flonum", "float", 100.0, 5, "obj-29", "flonum", "float", 88.0, 5, "obj-30", "flonum", "float", 12.0, 5, "obj-31", "number", "int", 400, 5, "obj-32", "toggle", "int", 0 ]
						}
, 						{
							"number" : 2,
							"data" : [ 5, "obj-26", "flonum", "float", -24.0, 5, "obj-27", "flonum", "float", 32.0, 5, "obj-28", "flonum", "float", 50.0, 5, "obj-29", "flonum", "float", 88.0, 5, "obj-30", "flonum", "float", 16.0, 5, "obj-31", "number", "int", 2205, 5, "obj-32", "toggle", "int", 0 ]
						}
, 						{
							"number" : 3,
							"data" : [ 5, "obj-26", "flonum", "float", -24.0, 5, "obj-27", "flonum", "float", 8.0, 5, "obj-28", "flonum", "float", 44.0, 5, "obj-29", "flonum", "float", 50.0, 5, "obj-30", "flonum", "float", 12.0, 5, "obj-31", "number", "int", 441, 5, "obj-32", "toggle", "int", 0 ]
						}
, 						{
							"number" : 4,
							"data" : [ 5, "obj-26", "flonum", "float", -36.0, 5, "obj-27", "flonum", "float", 32.0, 5, "obj-28", "flonum", "float", 100.0, 5, "obj-29", "flonum", "float", 44.0, 5, "obj-30", "flonum", "float", 12.0, 5, "obj-31", "number", "int", 441, 5, "obj-32", "toggle", "int", 0 ]
						}
, 						{
							"number" : 5,
							"data" : [ 5, "obj-26", "flonum", "float", 0.0, 5, "obj-27", "flonum", "float", 1.0, 5, "obj-28", "flonum", "float", 0.0, 5, "obj-29", "flonum", "float", 0.0, 5, "obj-30", "flonum", "float", 0.0, 5, "obj-31", "number", "int", 0, 5, "obj-32", "toggle", "int", 0 ]
						}
 ]
				}

			}
, 			{
				"box" : 				{
					"fontname" : "Arial",
					"fontsize" : 13.0,
					"frgb" : 0.0,
					"id" : "obj-42",
					"maxclass" : "comment",
					"numinlets" : 1,
					"numoutlets" : 0,
					"patching_rect" : [ 418.222626, 169.972229, 115.0, 21.0 ],
					"text" : "lookahead(samps)",
					"textcolor" : [ 0.501961, 0.501961, 0.501961, 1.0 ]
				}

			}
, 			{
				"box" : 				{
					"fontname" : "Arial",
					"fontsize" : 13.0,
					"frgb" : 0.0,
					"id" : "obj-36",
					"linecount" : 2,
					"maxclass" : "comment",
					"numinlets" : 1,
					"numoutlets" : 0,
					"patching_rect" : [ 200.3508, 165.666199, 53.0, 36.0 ],
					"text" : "ext key on/off",
					"textcolor" : [ 0.501961, 0.501961, 0.501961, 1.0 ]
				}

			}
, 			{
				"box" : 				{
					"fontname" : "Arial",
					"fontsize" : 13.0,
					"id" : "obj-33",
					"maxclass" : "newobj",
					"numinlets" : 1,
					"numoutlets" : 1,
					"outlettype" : [ "" ],
					"patching_rect" : [ 180.350815, 137.666199, 78.0, 21.0 ],
					"text" : "loadmess 1"
				}

			}
, 			{
				"box" : 				{
					"id" : "obj-32",
					"maxclass" : "toggle",
					"numinlets" : 1,
					"numoutlets" : 1,
					"outlettype" : [ "int" ],
					"parameter_enable" : 0,
					"patching_rect" : [ 377.961304, 216.972229, 26.0, 26.0 ],
					"presentation" : 1,
					"presentation_rect" : [ 263.93103, 6.825378, 26.0, 26.0 ]
				}

			}
, 			{
				"box" : 				{
					"fontname" : "Arial",
					"fontsize" : 11.595187,
					"id" : "obj-31",
					"maxclass" : "number",
					"numinlets" : 1,
					"numoutlets" : 2,
					"outlettype" : [ "int", "bang" ],
					"parameter_enable" : 0,
					"patching_rect" : [ 364.961304, 170.972229, 50.0, 19.0 ]
				}

			}
, 			{
				"box" : 				{
					"fontname" : "Arial",
					"fontsize" : 11.595187,
					"id" : "obj-30",
					"maxclass" : "flonum",
					"numinlets" : 1,
					"numoutlets" : 2,
					"outlettype" : [ "float", "bang" ],
					"parameter_enable" : 0,
					"patching_rect" : [ 364.961304, 192.972229, 50.0, 19.0 ],
					"presentation" : 1,
					"presentation_rect" : [ 236.93103, 86.0, 50.0, 19.0 ]
				}

			}
, 			{
				"box" : 				{
					"fontname" : "Arial",
					"fontsize" : 11.595187,
					"id" : "obj-29",
					"maxclass" : "flonum",
					"numinlets" : 1,
					"numoutlets" : 2,
					"outlettype" : [ "float", "bang" ],
					"parameter_enable" : 0,
					"patching_rect" : [ 364.961304, 148.972229, 50.0, 19.0 ],
					"presentation" : 1,
					"presentation_rect" : [ 236.93103, 60.0, 50.0, 19.0 ]
				}

			}
, 			{
				"box" : 				{
					"fontname" : "Arial",
					"fontsize" : 11.595187,
					"id" : "obj-28",
					"maxclass" : "flonum",
					"numinlets" : 1,
					"numoutlets" : 2,
					"outlettype" : [ "float", "bang" ],
					"parameter_enable" : 0,
					"patching_rect" : [ 364.961304, 126.972229, 50.0, 19.0 ],
					"presentation" : 1,
					"presentation_rect" : [ 236.93103, 35.825378, 50.0, 19.0 ]
				}

			}
, 			{
				"box" : 				{
					"fontname" : "Arial",
					"fontsize" : 11.595187,
					"id" : "obj-27",
					"maxclass" : "flonum",
					"numinlets" : 1,
					"numoutlets" : 2,
					"outlettype" : [ "float", "bang" ],
					"parameter_enable" : 0,
					"patching_rect" : [ 364.961304, 104.972229, 50.0, 19.0 ],
					"presentation" : 1,
					"presentation_rect" : [ 88.93103, 112.0, 50.0, 19.0 ]
				}

			}
, 			{
				"box" : 				{
					"fontname" : "Arial",
					"fontsize" : 11.595187,
					"id" : "obj-26",
					"maxclass" : "flonum",
					"numinlets" : 1,
					"numoutlets" : 2,
					"outlettype" : [ "float", "bang" ],
					"parameter_enable" : 0,
					"patching_rect" : [ 364.961304, 82.972229, 50.0, 19.0 ],
					"presentation" : 1,
					"presentation_rect" : [ 88.93103, 86.0, 50.0, 19.0 ]
				}

			}
, 			{
				"box" : 				{
					"fontname" : "Arial",
					"fontsize" : 13.0,
					"frgb" : 0.0,
					"id" : "obj-21",
					"linecount" : 3,
					"maxclass" : "comment",
					"numinlets" : 1,
					"numoutlets" : 0,
					"patching_rect" : [ 101.775055, 120.725708, 77.0, 50.0 ],
					"text" : "Mono sum controls both gains",
					"textcolor" : [ 0.501961, 0.501961, 0.501961, 1.0 ]
				}

			}
, 			{
				"box" : 				{
					"fontname" : "Arial",
					"fontsize" : 11.595187,
					"id" : "obj-7",
					"maxclass" : "newobj",
					"numinlets" : 10,
					"numoutlets" : 2,
					"outlettype" : [ "signal", "signal" ],
					"patching_rect" : [ 244.961304, 259.972229, 168.352936, 19.0 ],
					"text" : "komp",
					"varname" : "komp"
				}

			}
, 			{
				"box" : 				{
					"fontname" : "Arial",
					"fontsize" : 11.595187,
					"id" : "obj-17",
					"maxclass" : "newobj",
					"numinlets" : 10,
					"numoutlets" : 2,
					"outlettype" : [ "signal", "signal" ],
					"patching_rect" : [ 33.961323, 259.972229, 165.352936, 19.0 ],
					"text" : "komp",
					"varname" : "komp[1]"
				}

			}
, 			{
				"box" : 				{
					"fontname" : "Arial",
					"fontsize" : 11.595187,
					"id" : "obj-16",
					"maxclass" : "newobj",
					"numinlets" : 2,
					"numoutlets" : 1,
					"outlettype" : [ "signal" ],
					"patching_rect" : [ 49.776615, 191.039612, 34.470589, 19.0 ],
					"text" : "+~"
				}

			}
, 			{
				"box" : 				{
					"comment" : "Effect In",
					"id" : "obj-261",
					"maxclass" : "inlet",
					"numinlets" : 0,
					"numoutlets" : 1,
					"outlettype" : [ "" ],
					"patching_rect" : [ 244.601227, 93.61795, 25.0, 25.0 ]
				}

			}
, 			{
				"box" : 				{
					"comment" : "Effect In",
					"id" : "obj-262",
					"maxclass" : "inlet",
					"numinlets" : 0,
					"numoutlets" : 1,
					"outlettype" : [ "" ],
					"patching_rect" : [ 34.097401, 133.820709, 25.0, 25.0 ]
				}

			}
, 			{
				"box" : 				{
					"comment" : "Effect Out",
					"id" : "obj-241",
					"maxclass" : "outlet",
					"numinlets" : 1,
					"numoutlets" : 0,
					"patching_rect" : [ 246.097382, 383.330872, 25.0, 25.0 ]
				}

			}
, 			{
				"box" : 				{
					"comment" : "Effect Out",
					"id" : "obj-242",
					"maxclass" : "outlet",
					"numinlets" : 1,
					"numoutlets" : 0,
					"patching_rect" : [ 218.097382, 383.330872, 25.0, 25.0 ]
				}

			}
, 			{
				"box" : 				{
					"id" : "obj-243",
					"maxclass" : "live.gain~",
					"numinlets" : 2,
					"numoutlets" : 5,
					"outlettype" : [ "signal", "signal", "", "float", "list" ],
					"parameter_enable" : 1,
					"patching_rect" : [ 217.876373, 320.098999, 46.0, 50.0 ],
					"presentation" : 1,
					"presentation_rect" : [ 283.0, 5.0, 48.0, 136.0 ],
					"saved_attribute_attributes" : 					{
						"valueof" : 						{
							"parameter_longname" : "live.gain~[2]",
							"parameter_shortname" : "live.gain~",
							"parameter_type" : 0,
							"parameter_mmin" : -70.0,
							"parameter_mmax" : 6.0,
							"parameter_initial" : [ 0.0 ],
							"parameter_unitstyle" : 4
						}

					}
,
					"showname" : 0,
					"varname" : "live.gain~[2]"
				}

			}
, 			{
				"box" : 				{
					"fontname" : "Arial",
					"fontsize" : 12.0,
					"frgb" : 0.0,
					"id" : "obj-85",
					"maxclass" : "comment",
					"numinlets" : 1,
					"numoutlets" : 0,
					"patching_rect" : [ 408.624451, 220.493027, 82.0, 20.0 ],
					"presentation" : 1,
					"presentation_rect" : [ 213.0, 10.0, 51.0, 20.0 ],
					"text" : "Bypass"
				}

			}
, 			{
				"box" : 				{
					"fontname" : "Arial",
					"fontsize" : 12.0,
					"frgb" : 0.0,
					"id" : "obj-86",
					"maxclass" : "comment",
					"numinlets" : 1,
					"numoutlets" : 0,
					"patching_rect" : [ 418.222626, 193.050995, 82.0, 20.0 ],
					"presentation" : 1,
					"presentation_rect" : [ 152.0, 86.0, 91.0, 20.0 ],
					"text" : "Makeup Gain"
				}

			}
, 			{
				"box" : 				{
					"fontname" : "Arial",
					"fontsize" : 12.0,
					"frgb" : 0.0,
					"id" : "obj-83",
					"maxclass" : "comment",
					"numinlets" : 1,
					"numoutlets" : 0,
					"patching_rect" : [ 418.222626, 148.020081, 112.599686, 20.0 ],
					"presentation" : 1,
					"presentation_rect" : [ 152.0, 60.0, 84.0, 20.0 ],
					"text" : "Release (ms.)"
				}

			}
, 			{
				"box" : 				{
					"fontname" : "Arial",
					"fontsize" : 12.0,
					"frgb" : 0.0,
					"id" : "obj-84",
					"maxclass" : "comment",
					"numinlets" : 1,
					"numoutlets" : 0,
					"patching_rect" : [ 418.222626, 127.020081, 82.0, 20.0 ],
					"presentation" : 1,
					"presentation_rect" : [ 152.0, 36.0, 90.0, 20.0 ],
					"text" : "Attack (ms.)"
				}

			}
, 			{
				"box" : 				{
					"fontname" : "Arial",
					"fontsize" : 12.0,
					"frgb" : 0.0,
					"id" : "obj-81",
					"maxclass" : "comment",
					"numinlets" : 1,
					"numoutlets" : 0,
					"patching_rect" : [ 418.222626, 106.14682, 82.0, 20.0 ],
					"presentation" : 1,
					"presentation_rect" : [ 17.0, 112.0, 71.0, 20.0 ],
					"text" : "Ratio (n:1)"
				}

			}
, 			{
				"box" : 				{
					"fontname" : "Arial",
					"fontsize" : 12.0,
					"frgb" : 0.0,
					"id" : "obj-82",
					"maxclass" : "comment",
					"numinlets" : 1,
					"numoutlets" : 0,
					"patching_rect" : [ 418.222626, 85.14682, 99.715607, 20.0 ],
					"presentation" : 1,
					"presentation_linecount" : 2,
					"presentation_rect" : [ 23.0, 86.0, 65.0, 33.0 ],
					"text" : "Threshold (db)"
				}

			}
, 			{
				"box" : 				{
					"fontname" : "Arial Bold",
					"fontsize" : 12.0,
					"frgb" : 0.0,
					"id" : "obj-78",
					"maxclass" : "comment",
					"numinlets" : 1,
					"numoutlets" : 0,
					"patching_rect" : [ 100.792931, 13.726427, 97.0, 20.0 ],
					"presentation" : 1,
					"presentation_rect" : [ 5.0, 5.0, 97.0, 20.0 ],
					"text" : "Compressor"
				}

			}
, 			{
				"box" : 				{
					"background" : 1,
					"bgcolor" : [ 0.901961, 0.901961, 0.901961, 1.0 ],
					"border" : 2,
					"grad1" : [ 0.8, 0.8, 0.8, 1.0 ],
					"grad2" : [ 1.0, 1.0, 1.0, 1.0 ],
					"id" : "obj-79",
					"maxclass" : "panel",
					"mode" : 1,
					"numinlets" : 1,
					"numoutlets" : 0,
					"patching_rect" : [ 29.993866, 10.021641, 54.0, 38.0 ],
					"presentation" : 1,
					"presentation_rect" : [ 0.0, 0.0, 333.0, 150.0 ]
				}

			}
, 			{
				"box" : 				{
					"background" : 1,
					"bgcolor" : [ 1.0, 0.788235, 0.470588, 1.0 ],
					"border" : 0,
					"bordercolor" : [ 0.0, 0.0, 0.0, 1.0 ],
					"fontface" : 1,
					"fontname" : "Arial",
					"fontsize" : 13.0,
					"hint" : "",
					"id" : "obj-12",
					"ignoreclick" : 1,
					"maxclass" : "textbutton",
					"numinlets" : 1,
					"numoutlets" : 3,
					"outlettype" : [ "", "", "int" ],
					"parameter_enable" : 0,
					"patching_rect" : [ 73.461319, 82.972229, 20.0, 20.0 ],
					"rounded" : 60.0,
					"text" : "2",
					"textcolor" : [ 0.34902, 0.34902, 0.34902, 1.0 ],
					"textovercolor" : [ 0.2, 0.2, 0.2, 1.0 ]
				}

			}
, 			{
				"box" : 				{
					"background" : 1,
					"bgcolor" : [ 1.0, 0.788235, 0.470588, 1.0 ],
					"border" : 0,
					"bordercolor" : [ 0.0, 0.0, 0.0, 1.0 ],
					"fontface" : 1,
					"fontname" : "Arial",
					"fontsize" : 13.0,
					"hint" : "",
					"id" : "obj-13",
					"ignoreclick" : 1,
					"maxclass" : "textbutton",
					"numinlets" : 1,
					"numoutlets" : 3,
					"outlettype" : [ "", "", "int" ],
					"parameter_enable" : 0,
					"patching_rect" : [ 329.961304, 24.972225, 20.0, 20.0 ],
					"rounded" : 60.0,
					"text" : "3",
					"textcolor" : [ 0.34902, 0.34902, 0.34902, 1.0 ],
					"textovercolor" : [ 0.2, 0.2, 0.2, 1.0 ]
				}

			}
 ],
		"lines" : [ 			{
				"patchline" : 				{
					"destination" : [ "obj-17", 1 ],
					"disabled" : 0,
					"hidden" : 0,
					"source" : [ "obj-16", 0 ]
				}

			}
, 			{
				"patchline" : 				{
					"destination" : [ "obj-7", 1 ],
					"disabled" : 0,
					"hidden" : 0,
					"midpoints" : [ 59.276615, 234.50592, 271.056061, 234.50592 ],
					"source" : [ "obj-16", 0 ]
				}

			}
, 			{
				"patchline" : 				{
					"destination" : [ "obj-243", 0 ],
					"disabled" : 0,
					"hidden" : 0,
					"midpoints" : [ 43.461323, 305.477631, 227.376373, 305.477631 ],
					"source" : [ "obj-17", 0 ]
				}

			}
, 			{
				"patchline" : 				{
					"destination" : [ "obj-3", 0 ],
					"disabled" : 0,
					"hidden" : 0,
					"source" : [ "obj-17", 0 ]
				}

			}
, 			{
				"patchline" : 				{
					"destination" : [ "obj-44", 0 ],
					"disabled" : 0,
					"hidden" : 0,
					"midpoints" : [ 389.755035, 49.972225, 374.461304, 49.972225 ],
					"source" : [ "obj-2", 0 ]
				}

			}
, 			{
				"patchline" : 				{
					"destination" : [ "obj-241", 0 ],
					"disabled" : 0,
					"hidden" : 0,
					"source" : [ "obj-243", 1 ]
				}

			}
, 			{
				"patchline" : 				{
					"destination" : [ "obj-242", 0 ],
					"disabled" : 0,
					"hidden" : 0,
					"source" : [ "obj-243", 0 ]
				}

			}
, 			{
				"patchline" : 				{
					"destination" : [ "obj-17", 2 ],
					"disabled" : 0,
					"hidden" : 0,
					"midpoints" : [ 374.461304, 180.472229, 75.9842, 180.472229 ],
					"source" : [ "obj-26", 0 ]
				}

			}
, 			{
				"patchline" : 				{
					"destination" : [ "obj-7", 2 ],
					"disabled" : 0,
					"hidden" : 0,
					"midpoints" : [ 374.461304, 180.472229, 287.650848, 180.472229 ],
					"source" : [ "obj-26", 0 ]
				}

			}
, 			{
				"patchline" : 				{
					"destination" : [ "obj-16", 1 ],
					"disabled" : 0,
					"hidden" : 0,
					"midpoints" : [ 254.101227, 163.991821, 74.747208, 163.991821 ],
					"source" : [ "obj-261", 0 ]
				}

			}
, 			{
				"patchline" : 				{
					"destination" : [ "obj-7", 0 ],
					"disabled" : 0,
					"hidden" : 0,
					"source" : [ "obj-261", 0 ]
				}

			}
, 			{
				"patchline" : 				{
					"destination" : [ "obj-16", 0 ],
					"disabled" : 0,
					"hidden" : 0,
					"midpoints" : [ 43.597401, 168.793365, 59.276615, 168.793365 ],
					"source" : [ "obj-262", 0 ]
				}

			}
, 			{
				"patchline" : 				{
					"destination" : [ "obj-17", 0 ],
					"disabled" : 0,
					"hidden" : 0,
					"source" : [ "obj-262", 0 ]
				}

			}
, 			{
				"patchline" : 				{
					"destination" : [ "obj-17", 3 ],
					"disabled" : 0,
					"hidden" : 0,
					"midpoints" : [ 374.461304, 191.472229, 92.245636, 191.472229 ],
					"source" : [ "obj-27", 0 ]
				}

			}
, 			{
				"patchline" : 				{
					"destination" : [ "obj-7", 3 ],
					"disabled" : 0,
					"hidden" : 0,
					"midpoints" : [ 374.461304, 191.472229, 304.245605, 191.472229 ],
					"source" : [ "obj-27", 0 ]
				}

			}
, 			{
				"patchline" : 				{
					"destination" : [ "obj-17", 4 ],
					"disabled" : 0,
					"hidden" : 0,
					"midpoints" : [ 374.461304, 202.472229, 108.507072, 202.472229 ],
					"source" : [ "obj-28", 0 ]
				}

			}
, 			{
				"patchline" : 				{
					"destination" : [ "obj-7", 4 ],
					"disabled" : 0,
					"hidden" : 0,
					"midpoints" : [ 374.461304, 202.472229, 320.840393, 202.472229 ],
					"source" : [ "obj-28", 0 ]
				}

			}
, 			{
				"patchline" : 				{
					"destination" : [ "obj-17", 5 ],
					"disabled" : 0,
					"hidden" : 0,
					"midpoints" : [ 374.461304, 213.472229, 124.768509, 213.472229 ],
					"source" : [ "obj-29", 0 ]
				}

			}
, 			{
				"patchline" : 				{
					"destination" : [ "obj-7", 5 ],
					"disabled" : 0,
					"hidden" : 0,
					"midpoints" : [ 374.461304, 213.472229, 337.43515, 213.472229 ],
					"source" : [ "obj-29", 0 ]
				}

			}
, 			{
				"patchline" : 				{
					"destination" : [ "obj-17", 7 ],
					"disabled" : 0,
					"hidden" : 0,
					"midpoints" : [ 374.461304, 235.472229, 157.291382, 235.472229 ],
					"source" : [ "obj-30", 0 ]
				}

			}
, 			{
				"patchline" : 				{
					"destination" : [ "obj-7", 7 ],
					"disabled" : 0,
					"hidden" : 0,
					"midpoints" : [ 374.461304, 235.472229, 370.624695, 235.472229 ],
					"source" : [ "obj-30", 0 ]
				}

			}
, 			{
				"patchline" : 				{
					"destination" : [ "obj-17", 6 ],
					"disabled" : 0,
					"hidden" : 0,
					"midpoints" : [ 374.461304, 224.472229, 141.029953, 224.472229 ],
					"source" : [ "obj-31", 0 ]
				}

			}
, 			{
				"patchline" : 				{
					"destination" : [ "obj-7", 6 ],
					"disabled" : 0,
					"hidden" : 0,
					"midpoints" : [ 374.461304, 224.472229, 354.029938, 224.472229 ],
					"source" : [ "obj-31", 0 ]
				}

			}
, 			{
				"patchline" : 				{
					"destination" : [ "obj-17", 8 ],
					"disabled" : 0,
					"hidden" : 0,
					"midpoints" : [ 387.461304, 250.972229, 173.552826, 250.972229 ],
					"source" : [ "obj-32", 0 ]
				}

			}
, 			{
				"patchline" : 				{
					"destination" : [ "obj-7", 8 ],
					"disabled" : 0,
					"hidden" : 0,
					"source" : [ "obj-32", 0 ]
				}

			}
, 			{
				"patchline" : 				{
					"destination" : [ "obj-48", 0 ],
					"disabled" : 0,
					"hidden" : 0,
					"source" : [ "obj-33", 0 ]
				}

			}
, 			{
				"patchline" : 				{
					"destination" : [ "obj-17", 9 ],
					"disabled" : 0,
					"hidden" : 0,
					"source" : [ "obj-48", 0 ]
				}

			}
, 			{
				"patchline" : 				{
					"destination" : [ "obj-7", 9 ],
					"disabled" : 0,
					"hidden" : 0,
					"midpoints" : [ 189.850815, 222.319214, 403.81424, 222.319214 ],
					"source" : [ "obj-48", 0 ]
				}

			}
, 			{
				"patchline" : 				{
					"destination" : [ "obj-243", 1 ],
					"disabled" : 0,
					"hidden" : 0,
					"midpoints" : [ 254.461304, 295.814575, 254.376373, 295.814575 ],
					"source" : [ "obj-7", 0 ]
				}

			}
, 			{
				"patchline" : 				{
					"destination" : [ "obj-3", 0 ],
					"disabled" : 0,
					"hidden" : 0,
					"midpoints" : [ 254.461304, 291.651489, 43.622898, 291.651489 ],
					"source" : [ "obj-7", 0 ]
				}

			}
 ],
		"parameters" : 		{
			"obj-243" : [ "live.gain~[2]", "live.gain~", 0 ]
		}
,
		"dependency_cache" : [ 			{
				"name" : "komp.maxpat",
				"bootpath" : "/Users/VJ/Dropbox/Working Projects/Docs/_Publications/Books/FMT/_source/final/FMT/patchers",
				"patcherrelativepath" : "../../patchers",
				"type" : "JSON",
				"implicit" : 1
			}
, 			{
				"name" : "komp-ballistics.maxpat",
				"bootpath" : "/Users/VJ/Dropbox/Working Projects/Docs/_Publications/Books/FMT/_source/final/FMT/patchers",
				"patcherrelativepath" : "../../patchers",
				"type" : "JSON",
				"implicit" : 1
			}
 ]
	}

}
