{
	"patcher" : 	{
		"fileversion" : 1,
		"rect" : [ 25.0, 69.0, 640.0, 480.0 ],
		"bglocked" : 0,
		"defrect" : [ 25.0, 69.0, 640.0, 480.0 ],
		"openrect" : [ 0.0, 0.0, 0.0, 0.0 ],
		"openinpresentation" : 0,
		"default_fontsize" : 12.0,
		"default_fontface" : 0,
		"default_fontname" : "Arial",
		"gridonopen" : 0,
		"gridsize" : [ 15.0, 15.0 ],
		"gridsnaponopen" : 0,
		"toolbarvisible" : 1,
		"boxanimatetime" : 200,
		"imprint" : 0,
		"enablehscroll" : 1,
		"enablevscroll" : 1,
		"devicewidth" : 0.0,
		"boxes" : [ 			{
				"box" : 				{
					"maxclass" : "newobj",
					"text" : "abs 0.",
					"fontsize" : 12.0,
					"numoutlets" : 1,
					"patching_rect" : [ 136.0, 357.0, 43.0, 20.0 ],
					"outlettype" : [ "float" ],
					"id" : "obj-8",
					"fontname" : "Arial",
					"numinlets" : 1
				}

			}
, 			{
				"box" : 				{
					"maxclass" : "newobj",
					"text" : "% 1.00001",
					"fontsize" : 12.0,
					"numoutlets" : 1,
					"patching_rect" : [ 135.0, 382.0, 68.0, 20.0 ],
					"outlettype" : [ "int" ],
					"id" : "obj-9",
					"fontname" : "Arial",
					"numinlets" : 2
				}

			}
, 			{
				"box" : 				{
					"maxclass" : "comment",
					"text" : "add this to allow for \"offsets\" - it\nwraps for values greater than one.",
					"linecount" : 2,
					"fontsize" : 12.0,
					"numoutlets" : 0,
					"patching_rect" : [ 211.0, 362.0, 206.0, 34.0 ],
					"id" : "obj-12",
					"fontname" : "Arial",
					"numinlets" : 1
				}

			}
, 			{
				"box" : 				{
					"maxclass" : "newobj",
					"text" : "gate 1 1",
					"fontsize" : 12.0,
					"numoutlets" : 1,
					"patching_rect" : [ 66.0, 268.0, 54.0, 20.0 ],
					"outlettype" : [ "" ],
					"id" : "obj-6",
					"fontname" : "Arial",
					"numinlets" : 2
				}

			}
, 			{
				"box" : 				{
					"maxclass" : "newobj",
					"text" : "r #0-datagate",
					"fontsize" : 12.0,
					"numoutlets" : 1,
					"patching_rect" : [ 65.0, 188.0, 80.0, 20.0 ],
					"outlettype" : [ "" ],
					"id" : "obj-1",
					"fontname" : "Arial",
					"numinlets" : 0
				}

			}
, 			{
				"box" : 				{
					"maxclass" : "comment",
					"text" : "This is a data inlet. It expects either\nthe words \"off\" or \"on,\" or a floating-point number in the range of 0. 1.0",
					"linecount" : 4,
					"fontsize" : 12.0,
					"numoutlets" : 0,
					"patching_rect" : [ 192.0, 55.0, 206.0, 62.0 ],
					"id" : "obj-5",
					"fontname" : "Arial",
					"numinlets" : 1
				}

			}
, 			{
				"box" : 				{
					"maxclass" : "comment",
					"text" : "The \"set $1\" message box takes the off/on state and sends either a \"set 0\" (off) or a \"set 1\" (on) message out the subpatcher's right outlet. The \"set\" message will set the indicator button for the off/on state without causing any output from the button (which would cause a loop, and that's a bad thing).",
					"linecount" : 7,
					"fontsize" : 12.0,
					"numoutlets" : 0,
					"patching_rect" : [ 215.0, 417.0, 246.0, 103.0 ],
					"id" : "obj-4",
					"fontname" : "Arial",
					"numinlets" : 1
				}

			}
, 			{
				"box" : 				{
					"maxclass" : "comment",
					"text" : "The route object looks for the messages \"off\" or \"on\", and uses them to control a gate object that will either allow data to pass through (on) or block data from moving through (off). Anything else that comes in (i.e. control values in the range 0. - 1.0) get passed along to the gate object.",
					"linecount" : 7,
					"fontsize" : 12.0,
					"numoutlets" : 0,
					"patching_rect" : [ 165.0, 240.0, 260.0, 103.0 ],
					"id" : "obj-3",
					"fontname" : "Arial",
					"numinlets" : 1
				}

			}
, 			{
				"box" : 				{
					"maxclass" : "comment",
					"text" : "this inlet lets you use a button to send the same off/on messages as we get from other Vizzie objects. It converts the 0 or 1 the switch sends into the messages \"off\" or \"on\" using the Max route object and some message boxes.",
					"linecount" : 7,
					"fontsize" : 12.0,
					"numoutlets" : 0,
					"patching_rect" : [ 459.0, 53.0, 206.0, 103.0 ],
					"id" : "obj-2",
					"fontname" : "Arial",
					"numinlets" : 1
				}

			}
, 			{
				"box" : 				{
					"maxclass" : "message",
					"text" : "on",
					"fontsize" : 12.0,
					"numoutlets" : 1,
					"patching_rect" : [ 452.0, 194.0, 32.5, 18.0 ],
					"outlettype" : [ "" ],
					"id" : "obj-39",
					"fontname" : "Arial",
					"numinlets" : 2
				}

			}
, 			{
				"box" : 				{
					"maxclass" : "message",
					"text" : "off",
					"fontsize" : 12.0,
					"numoutlets" : 1,
					"patching_rect" : [ 417.0, 194.0, 32.5, 18.0 ],
					"outlettype" : [ "" ],
					"id" : "obj-40",
					"fontname" : "Arial",
					"numinlets" : 2
				}

			}
, 			{
				"box" : 				{
					"maxclass" : "newobj",
					"text" : "route 0 1",
					"fontsize" : 12.0,
					"numoutlets" : 3,
					"patching_rect" : [ 417.0, 166.0, 89.0, 20.0 ],
					"outlettype" : [ "", "", "" ],
					"id" : "obj-41",
					"fontname" : "Arial",
					"numinlets" : 1
				}

			}
, 			{
				"box" : 				{
					"maxclass" : "message",
					"text" : "set $1",
					"fontsize" : 12.0,
					"numoutlets" : 1,
					"patching_rect" : [ 100.0, 416.0, 43.0, 18.0 ],
					"outlettype" : [ "" ],
					"id" : "obj-38",
					"fontname" : "Arial",
					"numinlets" : 2
				}

			}
, 			{
				"box" : 				{
					"maxclass" : "newobj",
					"text" : "gate",
					"fontsize" : 12.0,
					"numoutlets" : 1,
					"patching_rect" : [ 65.0, 455.0, 89.0, 20.0 ],
					"outlettype" : [ "" ],
					"id" : "obj-22",
					"fontname" : "Arial",
					"numinlets" : 2
				}

			}
, 			{
				"box" : 				{
					"maxclass" : "message",
					"text" : "1",
					"fontsize" : 12.0,
					"numoutlets" : 1,
					"patching_rect" : [ 100.0, 326.0, 32.5, 18.0 ],
					"outlettype" : [ "" ],
					"id" : "obj-20",
					"fontname" : "Arial",
					"numinlets" : 2
				}

			}
, 			{
				"box" : 				{
					"maxclass" : "message",
					"text" : "0",
					"fontsize" : 12.0,
					"numoutlets" : 1,
					"patching_rect" : [ 65.0, 326.0, 32.5, 18.0 ],
					"outlettype" : [ "" ],
					"id" : "obj-19",
					"fontname" : "Arial",
					"numinlets" : 2
				}

			}
, 			{
				"box" : 				{
					"maxclass" : "newobj",
					"text" : "route off on",
					"fontsize" : 12.0,
					"numoutlets" : 3,
					"patching_rect" : [ 65.0, 298.0, 89.0, 20.0 ],
					"outlettype" : [ "", "", "" ],
					"id" : "obj-17",
					"fontname" : "Arial",
					"numinlets" : 1
				}

			}
, 			{
				"box" : 				{
					"maxclass" : "inlet",
					"numoutlets" : 1,
					"patching_rect" : [ 158.0, 55.0, 25.0, 25.0 ],
					"outlettype" : [ "" ],
					"id" : "obj-43",
					"numinlets" : 0,
					"comment" : ""
				}

			}
, 			{
				"box" : 				{
					"maxclass" : "inlet",
					"numoutlets" : 1,
					"patching_rect" : [ 417.0, 55.0, 25.0, 25.0 ],
					"outlettype" : [ "" ],
					"id" : "obj-44",
					"numinlets" : 0,
					"comment" : ""
				}

			}
, 			{
				"box" : 				{
					"maxclass" : "outlet",
					"numoutlets" : 0,
					"patching_rect" : [ 65.0, 535.0, 25.0, 25.0 ],
					"id" : "obj-45",
					"numinlets" : 1,
					"comment" : ""
				}

			}
, 			{
				"box" : 				{
					"maxclass" : "outlet",
					"numoutlets" : 0,
					"patching_rect" : [ 100.0, 535.0, 25.0, 25.0 ],
					"id" : "obj-46",
					"numinlets" : 1,
					"comment" : ""
				}

			}
 ],
		"lines" : [ 			{
				"patchline" : 				{
					"source" : [ "obj-38", 0 ],
					"destination" : [ "obj-46", 0 ],
					"hidden" : 0,
					"midpoints" : [  ]
				}

			}
, 			{
				"patchline" : 				{
					"source" : [ "obj-22", 0 ],
					"destination" : [ "obj-45", 0 ],
					"hidden" : 0,
					"midpoints" : [  ]
				}

			}
, 			{
				"patchline" : 				{
					"source" : [ "obj-44", 0 ],
					"destination" : [ "obj-41", 0 ],
					"hidden" : 0,
					"midpoints" : [  ]
				}

			}
, 			{
				"patchline" : 				{
					"source" : [ "obj-41", 1 ],
					"destination" : [ "obj-39", 0 ],
					"hidden" : 0,
					"midpoints" : [  ]
				}

			}
, 			{
				"patchline" : 				{
					"source" : [ "obj-41", 0 ],
					"destination" : [ "obj-40", 0 ],
					"hidden" : 0,
					"midpoints" : [  ]
				}

			}
, 			{
				"patchline" : 				{
					"source" : [ "obj-19", 0 ],
					"destination" : [ "obj-38", 0 ],
					"hidden" : 0,
					"midpoints" : [  ]
				}

			}
, 			{
				"patchline" : 				{
					"source" : [ "obj-20", 0 ],
					"destination" : [ "obj-38", 0 ],
					"hidden" : 0,
					"midpoints" : [  ]
				}

			}
, 			{
				"patchline" : 				{
					"source" : [ "obj-20", 0 ],
					"destination" : [ "obj-22", 0 ],
					"hidden" : 0,
					"midpoints" : [  ]
				}

			}
, 			{
				"patchline" : 				{
					"source" : [ "obj-19", 0 ],
					"destination" : [ "obj-22", 0 ],
					"hidden" : 0,
					"midpoints" : [  ]
				}

			}
, 			{
				"patchline" : 				{
					"source" : [ "obj-17", 1 ],
					"destination" : [ "obj-20", 0 ],
					"hidden" : 0,
					"midpoints" : [  ]
				}

			}
, 			{
				"patchline" : 				{
					"source" : [ "obj-17", 0 ],
					"destination" : [ "obj-19", 0 ],
					"hidden" : 0,
					"midpoints" : [  ]
				}

			}
, 			{
				"patchline" : 				{
					"source" : [ "obj-1", 0 ],
					"destination" : [ "obj-6", 0 ],
					"hidden" : 0,
					"midpoints" : [  ]
				}

			}
, 			{
				"patchline" : 				{
					"source" : [ "obj-6", 0 ],
					"destination" : [ "obj-17", 0 ],
					"hidden" : 0,
					"midpoints" : [  ]
				}

			}
, 			{
				"patchline" : 				{
					"source" : [ "obj-40", 0 ],
					"destination" : [ "obj-6", 1 ],
					"hidden" : 0,
					"midpoints" : [ 426.5, 227.0, 110.5, 227.0 ]
				}

			}
, 			{
				"patchline" : 				{
					"source" : [ "obj-39", 0 ],
					"destination" : [ "obj-6", 1 ],
					"hidden" : 0,
					"midpoints" : [ 461.5, 227.0, 110.5, 227.0 ]
				}

			}
, 			{
				"patchline" : 				{
					"source" : [ "obj-8", 0 ],
					"destination" : [ "obj-9", 0 ],
					"hidden" : 0,
					"midpoints" : [  ]
				}

			}
, 			{
				"patchline" : 				{
					"source" : [ "obj-17", 2 ],
					"destination" : [ "obj-8", 0 ],
					"hidden" : 0,
					"midpoints" : [  ]
				}

			}
, 			{
				"patchline" : 				{
					"source" : [ "obj-9", 0 ],
					"destination" : [ "obj-22", 1 ],
					"hidden" : 0,
					"midpoints" : [  ]
				}

			}
, 			{
				"patchline" : 				{
					"source" : [ "obj-43", 0 ],
					"destination" : [ "obj-6", 1 ],
					"hidden" : 0,
					"midpoints" : [ 167.5, 227.5, 110.5, 227.5 ]
				}

			}
 ]
	}

}
