{
	"patcher" : 	{
		"fileversion" : 1,
		"appversion" : 		{
			"major" : 6,
			"minor" : 1,
			"revision" : 7,
			"architecture" : "x86"
		}
,
		"rect" : [ 219.0, 233.0, 513.0, 240.0 ],
		"bgcolor" : [ 0.901961, 0.901961, 0.901961, 1.0 ],
		"bglocked" : 0,
		"openinpresentation" : 1,
		"default_fontsize" : 12.0,
		"default_fontface" : 0,
		"default_fontname" : "Arial",
		"gridonopen" : 0,
		"gridsize" : [ 15.0, 15.0 ],
		"gridsnaponopen" : 0,
		"statusbarvisible" : 0,
		"toolbarvisible" : 1,
		"boxanimatetime" : 200,
		"imprint" : 0,
		"enablehscroll" : 1,
		"enablevscroll" : 1,
		"devicewidth" : 0.0,
		"description" : "",
		"digest" : "",
		"tags" : "",
		"title" : "MIDI Programs on Different Channels",
		"boxes" : [ 			{
				"box" : 				{
					"fontname" : "Arial",
					"fontsize" : 12.0,
					"id" : "obj-22",
					"linecount" : 2,
					"maxclass" : "newobj",
					"numinlets" : 0,
					"numoutlets" : 1,
					"outlettype" : [ "" ],
					"patching_rect" : [ 357.0, 561.0, 102.0, 33.0 ],
					"text" : "receive MIDIoutputdevice"
				}

			}
, 			{
				"box" : 				{
					"fontname" : "Arial",
					"fontsize" : 12.0,
					"id" : "obj-57",
					"maxclass" : "newobj",
					"numinlets" : 1,
					"numoutlets" : 3,
					"outlettype" : [ "bang", "bang", "int" ],
					"patching_rect" : [ 37.255283, 467.553711, 46.0, 20.0 ],
					"text" : "t b b i"
				}

			}
, 			{
				"box" : 				{
					"fontname" : "Arial",
					"fontsize" : 12.0,
					"id" : "obj-45",
					"maxclass" : "newobj",
					"numinlets" : 2,
					"numoutlets" : 1,
					"outlettype" : [ "int" ],
					"patching_rect" : [ 159.576782, 562.554688, 32.5, 20.0 ],
					"text" : "int"
				}

			}
, 			{
				"box" : 				{
					"fontname" : "Arial",
					"fontsize" : 12.0,
					"id" : "obj-41",
					"maxclass" : "message",
					"numinlets" : 2,
					"numoutlets" : 1,
					"outlettype" : [ "" ],
					"patching_rect" : [ 485.560425, 121.079666, 92.0, 18.0 ],
					"text" : "loadmess bang"
				}

			}
, 			{
				"box" : 				{
					"fontname" : "Arial",
					"fontsize" : 12.0,
					"id" : "obj-39",
					"maxclass" : "newobj",
					"numinlets" : 1,
					"numoutlets" : 0,
					"patching_rect" : [ 486.802277, 149.021103, 59.0, 20.0 ],
					"text" : "universal"
				}

			}
, 			{
				"box" : 				{
					"fontname" : "Arial",
					"fontsize" : 12.0,
					"id" : "obj-32",
					"maxclass" : "newobj",
					"numinlets" : 2,
					"numoutlets" : 2,
					"outlettype" : [ "bang", "" ],
					"patching_rect" : [ 484.939514, 90.654541, 36.0, 20.0 ],
					"text" : "sel 1"
				}

			}
, 			{
				"box" : 				{
					"fontname" : "Arial",
					"fontsize" : 12.0,
					"id" : "obj-30",
					"maxclass" : "newobj",
					"numinlets" : 1,
					"numoutlets" : 1,
					"outlettype" : [ "int" ],
					"patching_rect" : [ 484.939514, 64.575821, 42.0, 20.0 ],
					"text" : "active"
				}

			}
, 			{
				"box" : 				{
					"fontname" : "Arial",
					"fontsize" : 12.0,
					"id" : "obj-17",
					"maxclass" : "newobj",
					"numinlets" : 1,
					"numoutlets" : 3,
					"outlettype" : [ "bang", "bang", "int" ],
					"patching_rect" : [ 463.207306, 435.265839, 46.0, 20.0 ],
					"text" : "t b b i"
				}

			}
, 			{
				"box" : 				{
					"fontname" : "Arial",
					"fontsize" : 12.0,
					"id" : "obj-11",
					"maxclass" : "newobj",
					"numinlets" : 2,
					"numoutlets" : 1,
					"outlettype" : [ "int" ],
					"patching_rect" : [ 570.626709, 581.182373, 32.5, 20.0 ],
					"text" : "int"
				}

			}
, 			{
				"box" : 				{
					"id" : "obj-33",
					"maxclass" : "button",
					"numinlets" : 1,
					"numoutlets" : 1,
					"outlettype" : [ "bang" ],
					"patching_rect" : [ 501.812958, 613.908447, 20.0, 20.0 ]
				}

			}
, 			{
				"box" : 				{
					"id" : "obj-31",
					"maxclass" : "button",
					"numinlets" : 1,
					"numoutlets" : 1,
					"outlettype" : [ "bang" ],
					"patching_rect" : [ 94.888069, 603.817749, 20.0, 20.0 ]
				}

			}
, 			{
				"box" : 				{
					"fontname" : "Arial",
					"fontsize" : 12.0,
					"id" : "obj-27",
					"maxclass" : "newobj",
					"numinlets" : 1,
					"numoutlets" : 0,
					"patching_rect" : [ 530.041016, 670.764465, 49.0, 20.0 ],
					"text" : "midiout"
				}

			}
, 			{
				"box" : 				{
					"fontname" : "Arial",
					"fontsize" : 12.0,
					"id" : "obj-28",
					"maxclass" : "newobj",
					"numinlets" : 7,
					"numoutlets" : 1,
					"outlettype" : [ "int" ],
					"patching_rect" : [ 530.041016, 614.88147, 100.0, 20.0 ],
					"text" : "midiformat"
				}

			}
, 			{
				"box" : 				{
					"fontname" : "Arial",
					"fontsize" : 12.0,
					"id" : "obj-29",
					"maxclass" : "newobj",
					"numinlets" : 1,
					"numoutlets" : 1,
					"outlettype" : [ "int" ],
					"patching_rect" : [ 530.041016, 644.798645, 58.0, 20.0 ],
					"text" : "midiflush"
				}

			}
, 			{
				"box" : 				{
					"fontname" : "Arial",
					"fontsize" : 12.0,
					"id" : "obj-26",
					"maxclass" : "newobj",
					"numinlets" : 1,
					"numoutlets" : 0,
					"patching_rect" : [ 119.837822, 658.684692, 49.0, 20.0 ],
					"text" : "midiout"
				}

			}
, 			{
				"box" : 				{
					"fontname" : "Arial",
					"fontsize" : 12.0,
					"id" : "obj-25",
					"maxclass" : "newobj",
					"numinlets" : 7,
					"numoutlets" : 1,
					"outlettype" : [ "int" ],
					"patching_rect" : [ 119.837822, 602.801697, 100.0, 20.0 ],
					"text" : "midiformat"
				}

			}
, 			{
				"box" : 				{
					"fontname" : "Arial",
					"fontsize" : 12.0,
					"id" : "obj-24",
					"maxclass" : "newobj",
					"numinlets" : 1,
					"numoutlets" : 1,
					"outlettype" : [ "int" ],
					"patching_rect" : [ 119.837822, 632.718872, 58.0, 20.0 ],
					"text" : "midiflush"
				}

			}
, 			{
				"box" : 				{
					"fontname" : "Arial",
					"fontsize" : 12.0,
					"id" : "obj-16",
					"maxclass" : "newobj",
					"numinlets" : 1,
					"numoutlets" : 2,
					"outlettype" : [ "bang", "int" ],
					"patching_rect" : [ 236.177185, 553.863708, 32.5, 20.0 ],
					"text" : "t b i"
				}

			}
, 			{
				"box" : 				{
					"fontname" : "Arial",
					"fontsize" : 12.0,
					"id" : "obj-15",
					"maxclass" : "newobj",
					"numinlets" : 1,
					"numoutlets" : 2,
					"outlettype" : [ "bang", "int" ],
					"patching_rect" : [ 721.555664, 544.857971, 32.5, 20.0 ],
					"text" : "t b i"
				}

			}
, 			{
				"box" : 				{
					"fontname" : "Arial",
					"fontsize" : 12.0,
					"id" : "obj-14",
					"maxclass" : "newobj",
					"numinlets" : 1,
					"numoutlets" : 1,
					"outlettype" : [ "bang" ],
					"patching_rect" : [ 144.0, 7.0, 65.0, 20.0 ],
					"text" : "closebang"
				}

			}
, 			{
				"box" : 				{
					"fontname" : "Arial",
					"fontsize" : 12.0,
					"id" : "obj-6",
					"maxclass" : "newobj",
					"numinlets" : 1,
					"numoutlets" : 2,
					"outlettype" : [ "", "" ],
					"patching_rect" : [ 240.0, 118.0, 69.0, 20.0 ],
					"save" : [ "#N", "thispatcher", ";", "#Q", "end", ";" ],
					"text" : "thispatcher"
				}

			}
, 			{
				"box" : 				{
					"comment" : "",
					"id" : "obj-4",
					"maxclass" : "inlet",
					"numinlets" : 0,
					"numoutlets" : 1,
					"outlettype" : [ "" ],
					"patching_rect" : [ 240.0, 78.0, 25.0, 25.0 ]
				}

			}
, 			{
				"box" : 				{
					"bgcolor" : [ 1.0, 0.788235, 0.470588, 1.0 ],
					"border" : 0,
					"bordercolor" : [ 0.0, 0.0, 0.0, 1.0 ],
					"fontface" : 1,
					"fontname" : "Arial",
					"fontsize" : 13.0,
					"hint" : "",
					"id" : "obj-66",
					"ignoreclick" : 1,
					"maxclass" : "textbutton",
					"numinlets" : 1,
					"numoutlets" : 3,
					"outlettype" : [ "", "", "int" ],
					"parameter_enable" : 0,
					"patching_rect" : [ 208.728638, 509.376404, 33.547375, 23.386843 ],
					"presentation" : 1,
					"presentation_rect" : [ 261.0, 88.0, 22.0, 20.0 ],
					"rounded" : 60.0,
					"text" : "15",
					"textcolor" : [ 0.34902, 0.34902, 0.34902, 1.0 ],
					"textovercolor" : [ 0.2, 0.2, 0.2, 1.0 ]
				}

			}
, 			{
				"box" : 				{
					"fontface" : 2,
					"fontname" : "Arial",
					"fontsize" : 12.0,
					"frgb" : 0.0,
					"id" : "obj-76",
					"maxclass" : "comment",
					"numinlets" : 1,
					"numoutlets" : 0,
					"patching_rect" : [ 664.0, 231.0, 150.0, 20.0 ],
					"presentation" : 1,
					"presentation_rect" : [ 274.0, 54.0, 150.0, 20.0 ],
					"text" : "Instrument 2"
				}

			}
, 			{
				"box" : 				{
					"fontface" : 2,
					"fontname" : "Arial",
					"fontsize" : 12.0,
					"frgb" : 0.0,
					"id" : "obj-75",
					"maxclass" : "comment",
					"numinlets" : 1,
					"numoutlets" : 0,
					"patching_rect" : [ 250.0, 261.0, 83.561417, 20.0 ],
					"presentation" : 1,
					"presentation_rect" : [ 37.0, 54.0, 150.0, 20.0 ],
					"text" : "Instrument 1"
				}

			}
, 			{
				"box" : 				{
					"id" : "obj-73",
					"linecolor" : [ 0.2, 0.2, 0.2, 1.0 ],
					"maxclass" : "live.line",
					"numinlets" : 1,
					"numoutlets" : 0,
					"patching_rect" : [ 371.0, 64.0, 5.0, 100.0 ],
					"presentation" : 1,
					"presentation_rect" : [ 35.0, 73.0, 454.0, 18.0 ]
				}

			}
, 			{
				"box" : 				{
					"id" : "obj-72",
					"linecolor" : [ 0.2, 0.2, 0.2, 1.0 ],
					"maxclass" : "live.line",
					"numinlets" : 1,
					"numoutlets" : 0,
					"patching_rect" : [ 388.0, 64.0, 5.0, 100.0 ],
					"presentation" : 1,
					"presentation_rect" : [ 247.0, 74.0, 20.0, 110.0 ]
				}

			}
, 			{
				"box" : 				{
					"fontname" : "Arial Bold",
					"fontsize" : 12.0,
					"frgb" : 0.0,
					"id" : "obj-71",
					"maxclass" : "comment",
					"numinlets" : 1,
					"numoutlets" : 0,
					"patching_rect" : [ 456.0, 344.0, 91.561417, 20.0 ],
					"presentation" : 1,
					"presentation_rect" : [ 38.0, 78.0, 158.0, 20.0 ],
					"text" : "MIDI Program"
				}

			}
, 			{
				"box" : 				{
					"fontname" : "Arial Bold",
					"fontsize" : 12.0,
					"frgb" : 0.0,
					"id" : "obj-70",
					"linecount" : 2,
					"maxclass" : "comment",
					"numinlets" : 1,
					"numoutlets" : 0,
					"patching_rect" : [ 35.379078, 368.797485, 66.724571, 33.0 ],
					"presentation" : 1,
					"presentation_rect" : [ 280.0, 78.0, 158.0, 20.0 ],
					"text" : "MIDI Program"
				}

			}
, 			{
				"box" : 				{
					"fontname" : "Arial",
					"fontsize" : 12.0,
					"id" : "obj-68",
					"maxclass" : "message",
					"numinlets" : 2,
					"numoutlets" : 1,
					"outlettype" : [ "" ],
					"patching_rect" : [ 102.0, 49.0, 32.5, 18.0 ],
					"text" : "0"
				}

			}
, 			{
				"box" : 				{
					"fontname" : "Arial",
					"fontsize" : 12.0,
					"id" : "obj-65",
					"maxclass" : "newobj",
					"numinlets" : 1,
					"numoutlets" : 1,
					"outlettype" : [ "" ],
					"patching_rect" : [ 236.12326, 496.440094, 72.0, 20.0 ],
					"text" : "loadmess 0"
				}

			}
, 			{
				"box" : 				{
					"fontname" : "Arial",
					"fontsize" : 12.0,
					"id" : "obj-62",
					"maxclass" : "newobj",
					"numinlets" : 1,
					"numoutlets" : 1,
					"outlettype" : [ "" ],
					"patching_rect" : [ 721.555664, 490.550842, 72.0, 20.0 ],
					"text" : "loadmess 0"
				}

			}
, 			{
				"box" : 				{
					"fontname" : "Arial",
					"fontsize" : 12.0,
					"id" : "obj-60",
					"maxclass" : "newobj",
					"numinlets" : 3,
					"numoutlets" : 3,
					"outlettype" : [ "bang", "bang", "" ],
					"patching_rect" : [ 102.0, 116.0, 46.0, 20.0 ],
					"text" : "sel 0 1"
				}

			}
, 			{
				"box" : 				{
					"fontname" : "Arial",
					"fontsize" : 10.0,
					"frgb" : 0.0,
					"id" : "obj-58",
					"linecount" : 2,
					"maxclass" : "comment",
					"numinlets" : 1,
					"numoutlets" : 0,
					"patching_rect" : [ 264.715912, 635.563354, 147.0, 29.0 ],
					"presentation" : 1,
					"presentation_rect" : [ 37.0, 206.0, 224.0, 18.0 ],
					"text" : "\"Invention No. 13, BWV 784\"  by J.S. Bach",
					"textcolor" : [ 0.298039, 0.298039, 0.298039, 1.0 ]
				}

			}
, 			{
				"box" : 				{
					"bgcolor" : [ 1.0, 0.788235, 0.470588, 1.0 ],
					"border" : 0,
					"bordercolor" : [ 0.0, 0.0, 0.0, 1.0 ],
					"fontface" : 1,
					"fontname" : "Arial",
					"fontsize" : 13.0,
					"hint" : "",
					"id" : "obj-8",
					"ignoreclick" : 1,
					"maxclass" : "textbutton",
					"numinlets" : 1,
					"numoutlets" : 3,
					"outlettype" : [ "", "", "int" ],
					"parameter_enable" : 0,
					"patching_rect" : [ 150.5, 62.0, 33.547375, 23.386843 ],
					"presentation" : 1,
					"presentation_rect" : [ 13.5, 20.0, 23.0, 20.0 ],
					"rounded" : 60.0,
					"text" : "13",
					"textcolor" : [ 0.34902, 0.34902, 0.34902, 1.0 ],
					"textovercolor" : [ 0.2, 0.2, 0.2, 1.0 ]
				}

			}
, 			{
				"box" : 				{
					"bgcolor" : [ 1.0, 0.788235, 0.470588, 1.0 ],
					"border" : 0,
					"bordercolor" : [ 0.0, 0.0, 0.0, 1.0 ],
					"fontface" : 1,
					"fontname" : "Arial",
					"fontsize" : 13.0,
					"hint" : "",
					"id" : "obj-9",
					"ignoreclick" : 1,
					"maxclass" : "textbutton",
					"numinlets" : 1,
					"numoutlets" : 3,
					"outlettype" : [ "", "", "int" ],
					"parameter_enable" : 0,
					"patching_rect" : [ 690.248535, 500.328217, 33.547375, 23.386843 ],
					"presentation" : 1,
					"presentation_rect" : [ 16.0, 87.0, 23.0, 20.0 ],
					"rounded" : 60.0,
					"text" : "14",
					"textcolor" : [ 0.34902, 0.34902, 0.34902, 1.0 ],
					"textovercolor" : [ 0.2, 0.2, 0.2, 1.0 ]
				}

			}
, 			{
				"box" : 				{
					"bgcolor" : [ 0.0, 1.0, 0.0, 1.0 ],
					"bgoncolor" : [ 1.0, 0.0, 0.0, 1.0 ],
					"bgovercolor" : [ 0.8, 1.0, 0.4, 1.0 ],
					"bgoveroncolor" : [ 0.501961, 0.0, 0.0, 1.0 ],
					"fontname" : "Arial",
					"fontsize" : 13.0,
					"id" : "obj-59",
					"maxclass" : "textbutton",
					"mode" : 1,
					"numinlets" : 1,
					"numoutlets" : 3,
					"outlettype" : [ "", "", "int" ],
					"parameter_enable" : 0,
					"patching_rect" : [ 102.421066, 78.126709, 44.485622, 31.662683 ],
					"presentation" : 1,
					"presentation_rect" : [ 39.421082, 17.126709, 51.485622, 31.662683 ],
					"text" : "Play",
					"texton" : "Stop"
				}

			}
, 			{
				"box" : 				{
					"fontname" : "Arial",
					"fontsize" : 12.0,
					"id" : "obj-19",
					"items" : [ 0, "Acoustic", "Grand", "Piano", ",", 1, "Bright", "Acoustic", "Piano", ",", 2, "Electric", "Grand", "Piano", ",", 3, "Honky-tonk", "Piano", ",", 4, "Electric", "Piano", 1, ",", 5, "Electric", "Piano", 2, ",", 6, "Harpsichord", ",", 7, "Clavinet", ",", 8, "Celesta", ",", 9, "Glockenspiel", ",", 10, "Music", "Box", ",", 11, "Vibraphone", ",", 12, "Marimba", ",", 13, "Xylophone", ",", 14, "Tubular", "Bells", ",", 15, "Dulcimer", ",", 16, "Drawbar", "Organ", ",", 17, "Percussive", "Organ", ",", 18, "Rock", "Organ", ",", 19, "Church", "Organ", ",", 20, "Reed", "Organ", ",", 21, "Accordion", ",", 22, "Harmonica", ",", 23, "Tango", "Accordion", ",", 24, "Acoustic", "Guitar", "(nylon)", ",", 25, "Acoustic", "Guitar", "(steel)", ",", 26, "Electric", "Guitar", "(jazz)", ",", 27, "Electric", "Guitar", "(clean)", ",", 28, "Electric", "Guitar", "(muted)", ",", 29, "Overdriven", "Guitar", ",", 30, "Distortion", "Guitar", ",", 31, "Guitar", "Harmonics", ",", 32, "Acoustic", "Bass", ",", 33, "Electric", "Bass", "(finger)", ",", 34, "Electric", "Bass", "(pick)", ",", 35, "Fretless", "Bass", ",", 36, "Slap", "Bass", 1, ",", 37, "Slap", "Bass", 2, ",", 38, "Synth", "Bass", 1, ",", 39, "Synth", "Bass", 2, ",", 40, "Violin", ",", 41, "Viola", ",", 42, "Cello", ",", 43, "Contrabass", ",", 44, "Tremolo", "Strings", ",", 45, "Pizzicato", "Strings", ",", 46, "Orchestral", "Harp", ",", 47, "Timpani", ",", 48, "String", "Ensemble", 1, ",", 49, "String", "Ensemble", 2, ",", 50, "Synth", "Strings", 1, ",", 51, "Synth", "Strings", 2, ",", 52, "Choir", "Aahs", ",", 53, "Voice", "Oohs", ",", 54, "Synth", "Choir", ",", 55, "Orchestra", "Hit", ",", 56, "Trumpet", ",", 57, "Trombone", ",", 58, "Tuba", ",", 59, "Muted", "Trumpet", ",", 60, "French", "Horn", ",", 61, "Brass", "Section", ",", 62, "Synth", "Brass", 1, ",", 63, "Synth", "Brass", 2, ",", 64, "Soprano", "Sax", ",", 65, "Alto", "Sax", ",", 66, "Tenor", "Sax", ",", 67, "Baritone", "Sax", ",", 68, "Oboe", ",", 69, "English", "Horn", ",", 70, "Bassoon", ",", 71, "Clarinet", ",", 72, "Piccolo", ",", 73, "Flute", ",", 74, "Recorder", ",", 75, "Pan", "Flute", ",", 76, "Blown", "Bottle", ",", 77, "Shakuhachi", ",", 78, "Whistle", ",", 79, "Ocarina", ",", 80, "Lead", 1, "(square)", ",", 81, "Lead", 2, "(sawtooth)", ",", 82, "Lead", 3, "(calliope)", ",", 83, "Lead", 4, "(chiff)", ",", 84, "Lead", 5, "(charang)", ",", 85, "Lead", 6, "(voice)", ",", 86, "Lead", 7, "(fifths)", ",", 87, "Lead", 8, "(bass", "+", "lead)", ",", 88, "Pad", 1, "(new", "age)", ",", 89, "Pad", 2, "(warm)", ",", 90, "Pad", 3, "(polysynth)", ",", 91, "Pad", 4, "(choir)", ",", 92, "Pad", 5, "(bowed)", ",", 93, "Pad", 6, "(metallic)", ",", 94, "Pad", 7, "(halo)", ",", 95, "Pad", 8, "(sweep)", ",", 96, "FX", 1, "(rain)", ",", 97, "FX", 2, "(soundtrack)", ",", 98, "FX", 3, "(crystal)", ",", 99, "FX", 4, "(atmosphere)", ",", 100, "FX", 5, "(brightness)", ",", 101, "FX", 6, "(goblins)", ",", 102, "FX", 7, "(echoes)", ",", 103, "FX", 8, "(sci-fi)", ",", 104, "Sitar", ",", 105, "Banjo", ",", 106, "Shamisen", ",", 107, "Koto", ",", 108, "Kalimba", ",", 109, "Bagpipe", ",", 110, "Fiddle", ",", 111, "Shanai", ",", 112, "Tinkle", "Bell", ",", 113, "Agogo", ",", 114, "Steel", "Drums", ",", 115, "Woodblock", ",", 116, "Taiko", "Drum", ",", 117, "Melodic", "Tom", ",", 118, "Synth", "Drum", ",", 119, "Reverse", "Cymbal", ",", 120, "Guitar", "Fret", "Noise", ",", 121, "Breath", "Noise", ",", 122, "Seashore", ",", 123, "Bird", "Tweet", ",", 124, "Telephone", "Ring", ",", 125, "Helicopter", ",", 126, "Applause", ",", 127, "Gunshot" ],
					"maxclass" : "umenu",
					"numinlets" : 1,
					"numoutlets" : 3,
					"outlettype" : [ "int", "", "" ],
					"parameter_enable" : 0,
					"patching_rect" : [ 236.687744, 524.746643, 104.89077, 20.0 ],
					"presentation" : 1,
					"presentation_rect" : [ 36.0, 95.0, 195.0, 20.0 ]
				}

			}
, 			{
				"box" : 				{
					"fontname" : "Arial",
					"fontsize" : 12.0,
					"id" : "obj-37",
					"maxclass" : "newobj",
					"numinlets" : 1,
					"numoutlets" : 1,
					"outlettype" : [ "" ],
					"patching_rect" : [ 37.123573, 408.912292, 72.0, 20.0 ],
					"text" : "loadmess 1"
				}

			}
, 			{
				"box" : 				{
					"fontname" : "Arial",
					"fontsize" : 11.595187,
					"id" : "obj-44",
					"items" : [ "Select", "a", "MIDI", "Output", "Channel", ",", "MIDI", "Ch.", 1, ",", "MIDI", "Ch.", 2, ",", "MIDI", "Ch.", 3, ",", "MIDI", "Ch.", 4, ",", "MIDI", "Ch.", 5, ",", "MIDI", "Ch.", 6, ",", "MIDI", "Ch.", 7, ",", "MIDI", "Ch.", 8, ",", "MIDI", "Ch.", 9, ",", "MIDI", "Ch.", 10, ",", "MIDI", "Ch.", 11, ",", "MIDI", "Ch.", 12, ",", "MIDI", "Ch.", 13, ",", "MIDI", "Ch.", 14, ",", "MIDI", "Ch.", 15, ",", "MIDI", "Ch.", 16 ],
					"maxclass" : "umenu",
					"numinlets" : 1,
					"numoutlets" : 3,
					"outlettype" : [ "int", "", "" ],
					"parameter_enable" : 0,
					"patching_rect" : [ 37.396278, 437.185059, 89.545456, 19.0 ],
					"presentation" : 1,
					"presentation_rect" : [ 37.363647, 155.727295, 197.545456, 19.0 ],
					"varname" : "eamir_MIDI[2]"
				}

			}
, 			{
				"box" : 				{
					"fontname" : "Arial",
					"fontsize" : 12.0,
					"id" : "obj-46",
					"maxclass" : "newobj",
					"numinlets" : 1,
					"numoutlets" : 1,
					"outlettype" : [ "bang" ],
					"patching_rect" : [ 175.183594, 260.072693, 60.0, 20.0 ],
					"text" : "loadbang"
				}

			}
, 			{
				"box" : 				{
					"hkeycolor" : [ 0.501961, 0.0, 1.0, 1.0 ],
					"id" : "obj-47",
					"maxclass" : "kslider",
					"mode" : 1,
					"numinlets" : 2,
					"numoutlets" : 2,
					"outlettype" : [ "int", "int" ],
					"parameter_enable" : 0,
					"patching_rect" : [ 151.161865, 436.497284, 196.0, 34.0 ],
					"presentation" : 1,
					"presentation_rect" : [ 36.161865, 118.497284, 196.0, 34.0 ]
				}

			}
, 			{
				"box" : 				{
					"id" : "obj-48",
					"maxclass" : "button",
					"numinlets" : 1,
					"numoutlets" : 1,
					"outlettype" : [ "bang" ],
					"patching_rect" : [ 101.572876, 244.013535, 20.0, 20.0 ]
				}

			}
, 			{
				"box" : 				{
					"fontname" : "Arial",
					"fontsize" : 12.0,
					"id" : "obj-49",
					"maxclass" : "newobj",
					"numinlets" : 1,
					"numoutlets" : 2,
					"outlettype" : [ "bang", "stop" ],
					"patching_rect" : [ 101.572876, 272.428101, 50.0, 20.0 ],
					"text" : "t b stop"
				}

			}
, 			{
				"box" : 				{
					"fontname" : "Arial",
					"fontsize" : 12.0,
					"id" : "obj-50",
					"maxclass" : "newobj",
					"numinlets" : 2,
					"numoutlets" : 1,
					"outlettype" : [ "" ],
					"patching_rect" : [ 151.161865, 489.848206, 36.0, 20.0 ],
					"text" : "pack"
				}

			}
, 			{
				"box" : 				{
					"fontname" : "Arial",
					"fontsize" : 12.0,
					"id" : "obj-51",
					"maxclass" : "newobj",
					"numinlets" : 2,
					"numoutlets" : 2,
					"outlettype" : [ "int", "int" ],
					"patching_rect" : [ 151.161865, 409.355042, 36.0, 20.0 ],
					"text" : "flush"
				}

			}
, 			{
				"box" : 				{
					"id" : "obj-52",
					"maxclass" : "button",
					"numinlets" : 1,
					"numoutlets" : 1,
					"outlettype" : [ "bang" ],
					"patching_rect" : [ 150.585938, 216.180984, 20.0, 20.0 ]
				}

			}
, 			{
				"box" : 				{
					"fontname" : "Arial",
					"fontsize" : 12.0,
					"id" : "obj-53",
					"maxclass" : "message",
					"numinlets" : 2,
					"numoutlets" : 1,
					"outlettype" : [ "" ],
					"patching_rect" : [ 175.335449, 285.942627, 161.0, 18.0 ],
					"text" : "read Invent_13_voice_2.mid"
				}

			}
, 			{
				"box" : 				{
					"fontname" : "Arial",
					"fontsize" : 12.0,
					"id" : "obj-54",
					"maxclass" : "newobj",
					"numinlets" : 1,
					"numoutlets" : 2,
					"outlettype" : [ "int", "int" ],
					"patching_rect" : [ 151.161865, 372.034424, 49.0, 20.0 ],
					"text" : "unpack"
				}

			}
, 			{
				"box" : 				{
					"fontname" : "Arial",
					"fontsize" : 12.0,
					"id" : "obj-55",
					"maxclass" : "newobj",
					"numinlets" : 1,
					"numoutlets" : 7,
					"outlettype" : [ "", "", "", "int", "int", "int", "int" ],
					"patching_rect" : [ 150.906067, 345.633759, 100.0, 20.0 ],
					"text" : "midiparse"
				}

			}
, 			{
				"box" : 				{
					"fontname" : "Arial",
					"fontsize" : 12.0,
					"id" : "obj-56",
					"maxclass" : "newobj",
					"numinlets" : 1,
					"numoutlets" : 2,
					"outlettype" : [ "int", "bang" ],
					"patching_rect" : [ 150.906067, 315.633759, 32.5, 20.0 ],
					"text" : "seq"
				}

			}
, 			{
				"box" : 				{
					"fontname" : "Arial",
					"fontsize" : 12.0,
					"id" : "obj-12",
					"items" : [ 0, "Acoustic", "Grand", "Piano", ",", 1, "Bright", "Acoustic", "Piano", ",", 2, "Electric", "Grand", "Piano", ",", 3, "Honky-tonk", "Piano", ",", 4, "Electric", "Piano", 1, ",", 5, "Electric", "Piano", 2, ",", 6, "Harpsichord", ",", 7, "Clavinet", ",", 8, "Celesta", ",", 9, "Glockenspiel", ",", 10, "Music", "Box", ",", 11, "Vibraphone", ",", 12, "Marimba", ",", 13, "Xylophone", ",", 14, "Tubular", "Bells", ",", 15, "Dulcimer", ",", 16, "Drawbar", "Organ", ",", 17, "Percussive", "Organ", ",", 18, "Rock", "Organ", ",", 19, "Church", "Organ", ",", 20, "Reed", "Organ", ",", 21, "Accordion", ",", 22, "Harmonica", ",", 23, "Tango", "Accordion", ",", 24, "Acoustic", "Guitar", "(nylon)", ",", 25, "Acoustic", "Guitar", "(steel)", ",", 26, "Electric", "Guitar", "(jazz)", ",", 27, "Electric", "Guitar", "(clean)", ",", 28, "Electric", "Guitar", "(muted)", ",", 29, "Overdriven", "Guitar", ",", 30, "Distortion", "Guitar", ",", 31, "Guitar", "Harmonics", ",", 32, "Acoustic", "Bass", ",", 33, "Electric", "Bass", "(finger)", ",", 34, "Electric", "Bass", "(pick)", ",", 35, "Fretless", "Bass", ",", 36, "Slap", "Bass", 1, ",", 37, "Slap", "Bass", 2, ",", 38, "Synth", "Bass", 1, ",", 39, "Synth", "Bass", 2, ",", 40, "Violin", ",", 41, "Viola", ",", 42, "Cello", ",", 43, "Contrabass", ",", 44, "Tremolo", "Strings", ",", 45, "Pizzicato", "Strings", ",", 46, "Orchestral", "Harp", ",", 47, "Timpani", ",", 48, "String", "Ensemble", 1, ",", 49, "String", "Ensemble", 2, ",", 50, "Synth", "Strings", 1, ",", 51, "Synth", "Strings", 2, ",", 52, "Choir", "Aahs", ",", 53, "Voice", "Oohs", ",", 54, "Synth", "Choir", ",", 55, "Orchestra", "Hit", ",", 56, "Trumpet", ",", 57, "Trombone", ",", 58, "Tuba", ",", 59, "Muted", "Trumpet", ",", 60, "French", "Horn", ",", 61, "Brass", "Section", ",", 62, "Synth", "Brass", 1, ",", 63, "Synth", "Brass", 2, ",", 64, "Soprano", "Sax", ",", 65, "Alto", "Sax", ",", 66, "Tenor", "Sax", ",", 67, "Baritone", "Sax", ",", 68, "Oboe", ",", 69, "English", "Horn", ",", 70, "Bassoon", ",", 71, "Clarinet", ",", 72, "Piccolo", ",", 73, "Flute", ",", 74, "Recorder", ",", 75, "Pan", "Flute", ",", 76, "Blown", "Bottle", ",", 77, "Shakuhachi", ",", 78, "Whistle", ",", 79, "Ocarina", ",", 80, "Lead", 1, "(square)", ",", 81, "Lead", 2, "(sawtooth)", ",", 82, "Lead", 3, "(calliope)", ",", 83, "Lead", 4, "(chiff)", ",", 84, "Lead", 5, "(charang)", ",", 85, "Lead", 6, "(voice)", ",", 86, "Lead", 7, "(fifths)", ",", 87, "Lead", 8, "(bass", "+", "lead)", ",", 88, "Pad", 1, "(new", "age)", ",", 89, "Pad", 2, "(warm)", ",", 90, "Pad", 3, "(polysynth)", ",", 91, "Pad", 4, "(choir)", ",", 92, "Pad", 5, "(bowed)", ",", 93, "Pad", 6, "(metallic)", ",", 94, "Pad", 7, "(halo)", ",", 95, "Pad", 8, "(sweep)", ",", 96, "FX", 1, "(rain)", ",", 97, "FX", 2, "(soundtrack)", ",", 98, "FX", 3, "(crystal)", ",", 99, "FX", 4, "(atmosphere)", ",", 100, "FX", 5, "(brightness)", ",", 101, "FX", 6, "(goblins)", ",", 102, "FX", 7, "(echoes)", ",", 103, "FX", 8, "(sci-fi)", ",", 104, "Sitar", ",", 105, "Banjo", ",", 106, "Shamisen", ",", 107, "Koto", ",", 108, "Kalimba", ",", 109, "Bagpipe", ",", 110, "Fiddle", ",", 111, "Shanai", ",", 112, "Tinkle", "Bell", ",", 113, "Agogo", ",", 114, "Steel", "Drums", ",", 115, "Woodblock", ",", 116, "Taiko", "Drum", ",", 117, "Melodic", "Tom", ",", 118, "Synth", "Drum", ",", 119, "Reverse", "Cymbal", ",", 120, "Guitar", "Fret", "Noise", ",", 121, "Breath", "Noise", ",", 122, "Seashore", ",", 123, "Bird", "Tweet", ",", 124, "Telephone", "Ring", ",", 125, "Helicopter", ",", 126, "Applause", ",", 127, "Gunshot" ],
					"maxclass" : "umenu",
					"numinlets" : 1,
					"numoutlets" : 3,
					"outlettype" : [ "int", "", "" ],
					"parameter_enable" : 0,
					"patching_rect" : [ 721.555664, 518.0672, 69.0, 20.0 ],
					"presentation" : 1,
					"presentation_rect" : [ 279.0, 95.0, 194.0, 20.0 ]
				}

			}
, 			{
				"box" : 				{
					"fontname" : "Arial",
					"fontsize" : 12.0,
					"id" : "obj-43",
					"maxclass" : "newobj",
					"numinlets" : 1,
					"numoutlets" : 1,
					"outlettype" : [ "" ],
					"patching_rect" : [ 463.090942, 375.454529, 72.0, 20.0 ],
					"text" : "loadmess 2"
				}

			}
, 			{
				"box" : 				{
					"fontname" : "Arial",
					"fontsize" : 11.595187,
					"id" : "obj-42",
					"items" : [ "Select", "a", "MIDI", "Output", "Channel", ",", "MIDI", "Ch.", 1, ",", "MIDI", "Ch.", 2, ",", "MIDI", "Ch.", 3, ",", "MIDI", "Ch.", 4, ",", "MIDI", "Ch.", 5, ",", "MIDI", "Ch.", 6, ",", "MIDI", "Ch.", 7, ",", "MIDI", "Ch.", 8, ",", "MIDI", "Ch.", 9, ",", "MIDI", "Ch.", 10, ",", "MIDI", "Ch.", 11, ",", "MIDI", "Ch.", 12, ",", "MIDI", "Ch.", 13, ",", "MIDI", "Ch.", 14, ",", "MIDI", "Ch.", 15, ",", "MIDI", "Ch.", 16 ],
					"maxclass" : "umenu",
					"numinlets" : 1,
					"numoutlets" : 3,
					"outlettype" : [ "int", "", "" ],
					"parameter_enable" : 0,
					"patching_rect" : [ 463.363647, 403.727295, 89.545456, 19.0 ],
					"presentation" : 1,
					"presentation_rect" : [ 276.363647, 155.727295, 198.545456, 19.0 ],
					"varname" : "eamir_MIDI[1]"
				}

			}
, 			{
				"box" : 				{
					"id" : "obj-38",
					"maxclass" : "button",
					"numinlets" : 1,
					"numoutlets" : 1,
					"outlettype" : [ "bang" ],
					"patching_rect" : [ 102.184059, 164.493958, 20.0, 20.0 ]
				}

			}
, 			{
				"box" : 				{
					"id" : "obj-36",
					"maxclass" : "button",
					"numinlets" : 1,
					"numoutlets" : 1,
					"outlettype" : [ "bang" ],
					"patching_rect" : [ 151.727051, 164.909027, 20.0, 20.0 ]
				}

			}
, 			{
				"box" : 				{
					"fontname" : "Arial",
					"fontsize" : 12.0,
					"id" : "obj-23",
					"maxclass" : "newobj",
					"numinlets" : 1,
					"numoutlets" : 1,
					"outlettype" : [ "bang" ],
					"patching_rect" : [ 596.183594, 229.072693, 60.0, 20.0 ],
					"text" : "loadbang"
				}

			}
, 			{
				"box" : 				{
					"hkeycolor" : [ 0.501961, 0.0, 1.0, 1.0 ],
					"id" : "obj-21",
					"maxclass" : "kslider",
					"mode" : 1,
					"numinlets" : 2,
					"numoutlets" : 2,
					"offset" : 48,
					"outlettype" : [ "int", "int" ],
					"parameter_enable" : 0,
					"patching_rect" : [ 572.161865, 428.497284, 196.0, 34.0 ],
					"presentation" : 1,
					"presentation_rect" : [ 277.161865, 118.497284, 196.0, 34.0 ]
				}

			}
, 			{
				"box" : 				{
					"id" : "obj-20",
					"maxclass" : "button",
					"numinlets" : 1,
					"numoutlets" : 1,
					"outlettype" : [ "bang" ],
					"patching_rect" : [ 527.572876, 213.013535, 20.0, 20.0 ]
				}

			}
, 			{
				"box" : 				{
					"fontname" : "Arial",
					"fontsize" : 12.0,
					"id" : "obj-18",
					"maxclass" : "newobj",
					"numinlets" : 1,
					"numoutlets" : 2,
					"outlettype" : [ "bang", "stop" ],
					"patching_rect" : [ 527.572876, 241.428101, 50.0, 20.0 ],
					"text" : "t b stop"
				}

			}
, 			{
				"box" : 				{
					"fontname" : "Arial",
					"fontsize" : 12.0,
					"id" : "obj-13",
					"maxclass" : "newobj",
					"numinlets" : 2,
					"numoutlets" : 1,
					"outlettype" : [ "" ],
					"patching_rect" : [ 572.161865, 481.509521, 36.0, 20.0 ],
					"text" : "pack"
				}

			}
, 			{
				"box" : 				{
					"fontname" : "Arial",
					"fontsize" : 12.0,
					"id" : "obj-10",
					"maxclass" : "newobj",
					"numinlets" : 2,
					"numoutlets" : 2,
					"outlettype" : [ "int", "int" ],
					"patching_rect" : [ 572.161865, 401.355042, 36.0, 20.0 ],
					"text" : "flush"
				}

			}
, 			{
				"box" : 				{
					"id" : "obj-7",
					"maxclass" : "button",
					"numinlets" : 1,
					"numoutlets" : 1,
					"outlettype" : [ "bang" ],
					"patching_rect" : [ 571.585938, 208.180984, 20.0, 20.0 ]
				}

			}
, 			{
				"box" : 				{
					"fontname" : "Arial",
					"fontsize" : 12.0,
					"id" : "obj-5",
					"maxclass" : "message",
					"numinlets" : 2,
					"numoutlets" : 1,
					"outlettype" : [ "" ],
					"patching_rect" : [ 596.335449, 254.942627, 161.0, 18.0 ],
					"text" : "read Invent_13_voice_1.mid"
				}

			}
, 			{
				"box" : 				{
					"fontname" : "Arial",
					"fontsize" : 12.0,
					"id" : "obj-3",
					"maxclass" : "newobj",
					"numinlets" : 1,
					"numoutlets" : 2,
					"outlettype" : [ "int", "int" ],
					"patching_rect" : [ 572.161865, 364.034424, 49.0, 20.0 ],
					"text" : "unpack"
				}

			}
, 			{
				"box" : 				{
					"fontname" : "Arial",
					"fontsize" : 12.0,
					"id" : "obj-2",
					"maxclass" : "newobj",
					"numinlets" : 1,
					"numoutlets" : 7,
					"outlettype" : [ "", "", "", "int", "int", "int", "int" ],
					"patching_rect" : [ 571.906067, 337.633759, 100.0, 20.0 ],
					"text" : "midiparse"
				}

			}
, 			{
				"box" : 				{
					"fontname" : "Arial",
					"fontsize" : 12.0,
					"id" : "obj-1",
					"maxclass" : "newobj",
					"numinlets" : 1,
					"numoutlets" : 2,
					"outlettype" : [ "int", "bang" ],
					"patching_rect" : [ 571.906067, 284.633759, 32.5, 20.0 ],
					"text" : "seq"
				}

			}
 ],
		"lines" : [ 			{
				"patchline" : 				{
					"destination" : [ "obj-2", 0 ],
					"disabled" : 0,
					"hidden" : 0,
					"source" : [ "obj-1", 0 ]
				}

			}
, 			{
				"patchline" : 				{
					"destination" : [ "obj-68", 0 ],
					"disabled" : 0,
					"hidden" : 0,
					"midpoints" : [ 594.906067, 326.0, 86.0, 326.0, 86.0, 39.0, 111.5, 39.0 ],
					"source" : [ "obj-1", 1 ]
				}

			}
, 			{
				"patchline" : 				{
					"destination" : [ "obj-21", 1 ],
					"disabled" : 0,
					"hidden" : 0,
					"midpoints" : [ 598.661865, 424.426147, 758.661865, 424.426147 ],
					"source" : [ "obj-10", 1 ]
				}

			}
, 			{
				"patchline" : 				{
					"destination" : [ "obj-21", 0 ],
					"disabled" : 0,
					"hidden" : 0,
					"source" : [ "obj-10", 0 ]
				}

			}
, 			{
				"patchline" : 				{
					"destination" : [ "obj-28", 3 ],
					"disabled" : 0,
					"hidden" : 0,
					"source" : [ "obj-11", 0 ]
				}

			}
, 			{
				"patchline" : 				{
					"destination" : [ "obj-15", 0 ],
					"disabled" : 0,
					"hidden" : 0,
					"source" : [ "obj-12", 0 ]
				}

			}
, 			{
				"patchline" : 				{
					"destination" : [ "obj-28", 0 ],
					"disabled" : 0,
					"hidden" : 0,
					"midpoints" : [ 581.661865, 557.695496, 539.541016, 557.695496 ],
					"source" : [ "obj-13", 0 ]
				}

			}
, 			{
				"patchline" : 				{
					"destination" : [ "obj-68", 0 ],
					"disabled" : 0,
					"hidden" : 0,
					"midpoints" : [ 153.5, 37.5, 111.5, 37.5 ],
					"source" : [ "obj-14", 0 ]
				}

			}
, 			{
				"patchline" : 				{
					"destination" : [ "obj-11", 0 ],
					"disabled" : 0,
					"hidden" : 0,
					"midpoints" : [ 744.555664, 570.65741, 580.126709, 570.65741 ],
					"source" : [ "obj-15", 1 ]
				}

			}
, 			{
				"patchline" : 				{
					"destination" : [ "obj-33", 0 ],
					"disabled" : 0,
					"hidden" : 0,
					"midpoints" : [ 731.055664, 607.200378, 511.312958, 607.200378 ],
					"source" : [ "obj-15", 0 ]
				}

			}
, 			{
				"patchline" : 				{
					"destination" : [ "obj-31", 0 ],
					"disabled" : 0,
					"hidden" : 0,
					"midpoints" : [ 245.677185, 592.99762, 104.388069, 592.99762 ],
					"source" : [ "obj-16", 0 ]
				}

			}
, 			{
				"patchline" : 				{
					"destination" : [ "obj-45", 0 ],
					"disabled" : 0,
					"hidden" : 0,
					"midpoints" : [ 259.177185, 582.863708, 214.126984, 582.863708, 214.126984, 552.554688, 169.076782, 552.554688 ],
					"source" : [ "obj-16", 1 ]
				}

			}
, 			{
				"patchline" : 				{
					"destination" : [ "obj-11", 0 ],
					"disabled" : 0,
					"hidden" : 0,
					"midpoints" : [ 472.707306, 569.88147, 580.126709, 569.88147 ],
					"source" : [ "obj-17", 0 ]
				}

			}
, 			{
				"patchline" : 				{
					"destination" : [ "obj-28", 6 ],
					"disabled" : 0,
					"hidden" : 0,
					"midpoints" : [ 499.707306, 519.235779, 620.541016, 519.235779 ],
					"source" : [ "obj-17", 2 ]
				}

			}
, 			{
				"patchline" : 				{
					"destination" : [ "obj-33", 0 ],
					"disabled" : 0,
					"hidden" : 0,
					"midpoints" : [ 486.207306, 521.668701, 511.312958, 521.668701 ],
					"source" : [ "obj-17", 1 ]
				}

			}
, 			{
				"patchline" : 				{
					"destination" : [ "obj-1", 0 ],
					"disabled" : 0,
					"hidden" : 0,
					"midpoints" : [ 568.072876, 279.924347, 581.406067, 279.924347 ],
					"source" : [ "obj-18", 1 ]
				}

			}
, 			{
				"patchline" : 				{
					"destination" : [ "obj-10", 0 ],
					"disabled" : 0,
					"hidden" : 0,
					"midpoints" : [ 537.072876, 389.650177, 581.661865, 389.650177 ],
					"source" : [ "obj-18", 0 ]
				}

			}
, 			{
				"patchline" : 				{
					"destination" : [ "obj-16", 0 ],
					"disabled" : 0,
					"hidden" : 0,
					"source" : [ "obj-19", 0 ]
				}

			}
, 			{
				"patchline" : 				{
					"destination" : [ "obj-3", 0 ],
					"disabled" : 0,
					"hidden" : 0,
					"source" : [ "obj-2", 0 ]
				}

			}
, 			{
				"patchline" : 				{
					"destination" : [ "obj-18", 0 ],
					"disabled" : 0,
					"hidden" : 0,
					"source" : [ "obj-20", 0 ]
				}

			}
, 			{
				"patchline" : 				{
					"destination" : [ "obj-13", 1 ],
					"disabled" : 0,
					"hidden" : 0,
					"midpoints" : [ 758.661865, 470.228729, 598.661865, 470.228729 ],
					"source" : [ "obj-21", 1 ]
				}

			}
, 			{
				"patchline" : 				{
					"destination" : [ "obj-13", 0 ],
					"disabled" : 0,
					"hidden" : 0,
					"source" : [ "obj-21", 0 ]
				}

			}
, 			{
				"patchline" : 				{
					"destination" : [ "obj-26", 0 ],
					"disabled" : 0,
					"hidden" : 0,
					"midpoints" : [ 366.5, 655.842346, 129.33783, 655.842346 ],
					"source" : [ "obj-22", 0 ]
				}

			}
, 			{
				"patchline" : 				{
					"destination" : [ "obj-27", 0 ],
					"disabled" : 0,
					"hidden" : 0,
					"midpoints" : [ 366.5, 664.882202, 539.541016, 664.882202 ],
					"source" : [ "obj-22", 0 ]
				}

			}
, 			{
				"patchline" : 				{
					"destination" : [ "obj-5", 0 ],
					"disabled" : 0,
					"hidden" : 0,
					"source" : [ "obj-23", 0 ]
				}

			}
, 			{
				"patchline" : 				{
					"destination" : [ "obj-26", 0 ],
					"disabled" : 0,
					"hidden" : 0,
					"source" : [ "obj-24", 0 ]
				}

			}
, 			{
				"patchline" : 				{
					"destination" : [ "obj-24", 0 ],
					"disabled" : 0,
					"hidden" : 0,
					"source" : [ "obj-25", 0 ]
				}

			}
, 			{
				"patchline" : 				{
					"destination" : [ "obj-29", 0 ],
					"disabled" : 0,
					"hidden" : 0,
					"source" : [ "obj-28", 0 ]
				}

			}
, 			{
				"patchline" : 				{
					"destination" : [ "obj-27", 0 ],
					"disabled" : 0,
					"hidden" : 0,
					"source" : [ "obj-29", 0 ]
				}

			}
, 			{
				"patchline" : 				{
					"destination" : [ "obj-10", 1 ],
					"disabled" : 0,
					"hidden" : 0,
					"midpoints" : [ 611.661865, 391.134521, 598.661865, 391.134521 ],
					"source" : [ "obj-3", 1 ]
				}

			}
, 			{
				"patchline" : 				{
					"destination" : [ "obj-10", 0 ],
					"disabled" : 0,
					"hidden" : 0,
					"source" : [ "obj-3", 0 ]
				}

			}
, 			{
				"patchline" : 				{
					"destination" : [ "obj-32", 0 ],
					"disabled" : 0,
					"hidden" : 0,
					"source" : [ "obj-30", 0 ]
				}

			}
, 			{
				"patchline" : 				{
					"destination" : [ "obj-24", 0 ],
					"disabled" : 0,
					"hidden" : 0,
					"source" : [ "obj-31", 0 ]
				}

			}
, 			{
				"patchline" : 				{
					"destination" : [ "obj-41", 0 ],
					"disabled" : 0,
					"hidden" : 0,
					"source" : [ "obj-32", 0 ]
				}

			}
, 			{
				"patchline" : 				{
					"destination" : [ "obj-29", 0 ],
					"disabled" : 0,
					"hidden" : 0,
					"source" : [ "obj-33", 0 ]
				}

			}
, 			{
				"patchline" : 				{
					"destination" : [ "obj-52", 0 ],
					"disabled" : 0,
					"hidden" : 0,
					"source" : [ "obj-36", 0 ]
				}

			}
, 			{
				"patchline" : 				{
					"destination" : [ "obj-7", 0 ],
					"disabled" : 0,
					"hidden" : 0,
					"midpoints" : [ 161.227051, 195.545013, 581.085938, 195.545013 ],
					"source" : [ "obj-36", 0 ]
				}

			}
, 			{
				"patchline" : 				{
					"destination" : [ "obj-44", 0 ],
					"disabled" : 0,
					"hidden" : 0,
					"source" : [ "obj-37", 0 ]
				}

			}
, 			{
				"patchline" : 				{
					"destination" : [ "obj-20", 0 ],
					"disabled" : 0,
					"hidden" : 0,
					"midpoints" : [ 111.684059, 205.253738, 537.072876, 205.253738 ],
					"source" : [ "obj-38", 0 ]
				}

			}
, 			{
				"patchline" : 				{
					"destination" : [ "obj-48", 0 ],
					"disabled" : 0,
					"hidden" : 0,
					"source" : [ "obj-38", 0 ]
				}

			}
, 			{
				"patchline" : 				{
					"destination" : [ "obj-6", 0 ],
					"disabled" : 0,
					"hidden" : 0,
					"source" : [ "obj-4", 0 ]
				}

			}
, 			{
				"patchline" : 				{
					"destination" : [ "obj-39", 0 ],
					"disabled" : 0,
					"hidden" : 0,
					"source" : [ "obj-41", 0 ]
				}

			}
, 			{
				"patchline" : 				{
					"destination" : [ "obj-17", 0 ],
					"disabled" : 0,
					"hidden" : 0,
					"source" : [ "obj-42", 0 ]
				}

			}
, 			{
				"patchline" : 				{
					"destination" : [ "obj-42", 0 ],
					"disabled" : 0,
					"hidden" : 0,
					"source" : [ "obj-43", 0 ]
				}

			}
, 			{
				"patchline" : 				{
					"destination" : [ "obj-57", 0 ],
					"disabled" : 0,
					"hidden" : 0,
					"source" : [ "obj-44", 0 ]
				}

			}
, 			{
				"patchline" : 				{
					"destination" : [ "obj-25", 3 ],
					"disabled" : 0,
					"hidden" : 0,
					"source" : [ "obj-45", 0 ]
				}

			}
, 			{
				"patchline" : 				{
					"destination" : [ "obj-53", 0 ],
					"disabled" : 0,
					"hidden" : 0,
					"source" : [ "obj-46", 0 ]
				}

			}
, 			{
				"patchline" : 				{
					"destination" : [ "obj-50", 1 ],
					"disabled" : 0,
					"hidden" : 0,
					"midpoints" : [ 337.661865, 478.228729, 177.661865, 478.228729 ],
					"source" : [ "obj-47", 1 ]
				}

			}
, 			{
				"patchline" : 				{
					"destination" : [ "obj-50", 0 ],
					"disabled" : 0,
					"hidden" : 0,
					"source" : [ "obj-47", 0 ]
				}

			}
, 			{
				"patchline" : 				{
					"destination" : [ "obj-49", 0 ],
					"disabled" : 0,
					"hidden" : 0,
					"source" : [ "obj-48", 0 ]
				}

			}
, 			{
				"patchline" : 				{
					"destination" : [ "obj-51", 0 ],
					"disabled" : 0,
					"hidden" : 0,
					"midpoints" : [ 111.072876, 397.650177, 160.661865, 397.650177 ],
					"source" : [ "obj-49", 0 ]
				}

			}
, 			{
				"patchline" : 				{
					"destination" : [ "obj-56", 0 ],
					"disabled" : 0,
					"hidden" : 0,
					"midpoints" : [ 142.072876, 310.924347, 160.406067, 310.924347 ],
					"source" : [ "obj-49", 1 ]
				}

			}
, 			{
				"patchline" : 				{
					"destination" : [ "obj-1", 0 ],
					"disabled" : 0,
					"hidden" : 0,
					"source" : [ "obj-5", 0 ]
				}

			}
, 			{
				"patchline" : 				{
					"destination" : [ "obj-25", 0 ],
					"disabled" : 0,
					"hidden" : 0,
					"midpoints" : [ 160.661865, 555.824951, 129.33783, 555.824951 ],
					"source" : [ "obj-50", 0 ]
				}

			}
, 			{
				"patchline" : 				{
					"destination" : [ "obj-47", 1 ],
					"disabled" : 0,
					"hidden" : 0,
					"midpoints" : [ 177.661865, 432.426147, 337.661865, 432.426147 ],
					"source" : [ "obj-51", 1 ]
				}

			}
, 			{
				"patchline" : 				{
					"destination" : [ "obj-47", 0 ],
					"disabled" : 0,
					"hidden" : 0,
					"source" : [ "obj-51", 0 ]
				}

			}
, 			{
				"patchline" : 				{
					"destination" : [ "obj-56", 0 ],
					"disabled" : 0,
					"hidden" : 0,
					"source" : [ "obj-52", 0 ]
				}

			}
, 			{
				"patchline" : 				{
					"destination" : [ "obj-56", 0 ],
					"disabled" : 0,
					"hidden" : 0,
					"source" : [ "obj-53", 0 ]
				}

			}
, 			{
				"patchline" : 				{
					"destination" : [ "obj-51", 1 ],
					"disabled" : 0,
					"hidden" : 0,
					"midpoints" : [ 190.661865, 399.134521, 177.661865, 399.134521 ],
					"source" : [ "obj-54", 1 ]
				}

			}
, 			{
				"patchline" : 				{
					"destination" : [ "obj-51", 0 ],
					"disabled" : 0,
					"hidden" : 0,
					"source" : [ "obj-54", 0 ]
				}

			}
, 			{
				"patchline" : 				{
					"destination" : [ "obj-54", 0 ],
					"disabled" : 0,
					"hidden" : 0,
					"source" : [ "obj-55", 0 ]
				}

			}
, 			{
				"patchline" : 				{
					"destination" : [ "obj-55", 0 ],
					"disabled" : 0,
					"hidden" : 0,
					"source" : [ "obj-56", 0 ]
				}

			}
, 			{
				"patchline" : 				{
					"destination" : [ "obj-25", 6 ],
					"disabled" : 0,
					"hidden" : 0,
					"midpoints" : [ 73.75528, 528.533752, 210.33783, 528.533752 ],
					"source" : [ "obj-57", 2 ]
				}

			}
, 			{
				"patchline" : 				{
					"destination" : [ "obj-31", 0 ],
					"disabled" : 0,
					"hidden" : 0,
					"midpoints" : [ 60.255283, 572.506287, 104.388069, 572.506287 ],
					"source" : [ "obj-57", 1 ]
				}

			}
, 			{
				"patchline" : 				{
					"destination" : [ "obj-45", 0 ],
					"disabled" : 0,
					"hidden" : 0,
					"midpoints" : [ 46.755283, 541.629578, 169.076782, 541.629578 ],
					"source" : [ "obj-57", 0 ]
				}

			}
, 			{
				"patchline" : 				{
					"destination" : [ "obj-60", 0 ],
					"disabled" : 0,
					"hidden" : 0,
					"source" : [ "obj-59", 0 ]
				}

			}
, 			{
				"patchline" : 				{
					"destination" : [ "obj-36", 0 ],
					"disabled" : 0,
					"hidden" : 0,
					"midpoints" : [ 125.0, 151.454514, 161.227051, 151.454514 ],
					"source" : [ "obj-60", 1 ]
				}

			}
, 			{
				"patchline" : 				{
					"destination" : [ "obj-38", 0 ],
					"disabled" : 0,
					"hidden" : 0,
					"source" : [ "obj-60", 0 ]
				}

			}
, 			{
				"patchline" : 				{
					"destination" : [ "obj-12", 0 ],
					"disabled" : 0,
					"hidden" : 0,
					"source" : [ "obj-62", 0 ]
				}

			}
, 			{
				"patchline" : 				{
					"destination" : [ "obj-19", 0 ],
					"disabled" : 0,
					"hidden" : 0,
					"source" : [ "obj-65", 0 ]
				}

			}
, 			{
				"patchline" : 				{
					"destination" : [ "obj-59", 0 ],
					"disabled" : 0,
					"hidden" : 0,
					"source" : [ "obj-68", 0 ]
				}

			}
, 			{
				"patchline" : 				{
					"destination" : [ "obj-1", 0 ],
					"disabled" : 0,
					"hidden" : 0,
					"source" : [ "obj-7", 0 ]
				}

			}
 ],
		"dependency_cache" : [  ]
	}

}
