{
	"patcher" : 	{
		"fileversion" : 1,
		"appversion" : 		{
			"major" : 7,
			"minor" : 0,
			"revision" : 4,
			"architecture" : "x64",
			"modernui" : 1
		}
,
		"rect" : [ 192.0, 78.0, 1003.0, 722.0 ],
		"bglocked" : 0,
		"openinpresentation" : 1,
		"default_fontsize" : 12.0,
		"default_fontface" : 0,
		"default_fontname" : "Arial",
		"gridonopen" : 1,
		"gridsize" : [ 15.0, 15.0 ],
		"gridsnaponopen" : 1,
		"objectsnaponopen" : 1,
		"statusbarvisible" : 0,
		"toolbarvisible" : 1,
		"lefttoolbarpinned" : 0,
		"toptoolbarpinned" : 0,
		"righttoolbarpinned" : 0,
		"bottomtoolbarpinned" : 0,
		"toolbars_unpinned_last_save" : 0,
		"tallnewobj" : 0,
		"boxanimatetime" : 200,
		"enablehscroll" : 1,
		"enablevscroll" : 1,
		"devicewidth" : 0.0,
		"description" : "",
		"digest" : "",
		"tags" : "",
		"style" : "",
		"subpatcher_template" : "",
		"boxes" : [ 			{
				"box" : 				{
					"bgcolor" : [ 1.0, 0.788235, 0.470588, 1.0 ],
					"bgoncolor" : [ 0.55, 0.55, 0.55, 1.0 ],
					"fontface" : 1,
					"fontsize" : 13.0,
					"hint" : "",
					"id" : "obj-12",
					"ignoreclick" : 1,
					"legacytextcolor" : 1,
					"maxclass" : "textbutton",
					"numinlets" : 1,
					"numoutlets" : 3,
					"outlettype" : [ "", "", "int" ],
					"parameter_enable" : 0,
					"patching_rect" : [ 467.5, 277.0, 20.0, 20.0 ],
					"presentation" : 1,
					"presentation_rect" : [ 842.5, 43.0, 20.0, 20.0 ],
					"rounded" : 60.0,
					"style" : "",
					"text" : "5",
					"textcolor" : [ 0.34902, 0.34902, 0.34902, 1.0 ],
					"textoncolor" : [ 1.0, 1.0, 1.0, 1.0 ],
					"textovercolor" : [ 0.2, 0.2, 0.2, 1.0 ],
					"usebgoncolor" : 1,
					"usetextovercolor" : 1
				}

			}
, 			{
				"box" : 				{
					"fontname" : "Arial",
					"fontsize" : 12.0,
					"id" : "obj-22",
					"maxclass" : "newobj",
					"numinlets" : 1,
					"numoutlets" : 1,
					"outlettype" : [ "" ],
					"patching_rect" : [ 177.0, 321.0, 83.0, 22.0 ],
					"style" : "",
					"text" : "loadmess -10"
				}

			}
, 			{
				"box" : 				{
					"color" : [ 0.137255, 0.007843, 0.266667, 1.0 ],
					"fontname" : "Arial",
					"fontsize" : 12.0,
					"id" : "obj-21",
					"maxclass" : "newobj",
					"numinlets" : 1,
					"numoutlets" : 0,
					"patching_rect" : [ 177.0, 349.0, 79.0, 22.0 ],
					"style" : "",
					"text" : "send volume"
				}

			}
, 			{
				"box" : 				{
					"color" : [ 0.137255, 0.007843, 0.266667, 1.0 ],
					"fontname" : "Arial",
					"fontsize" : 12.0,
					"id" : "obj-34",
					"maxclass" : "newobj",
					"numinlets" : 1,
					"numoutlets" : 0,
					"patching_rect" : [ 91.0, 349.0, 70.0, 22.0 ],
					"style" : "",
					"text" : "send~ right"
				}

			}
, 			{
				"box" : 				{
					"color" : [ 0.137255, 0.007843, 0.266667, 1.0 ],
					"fontname" : "Arial",
					"fontsize" : 12.0,
					"id" : "obj-35",
					"maxclass" : "newobj",
					"numinlets" : 1,
					"numoutlets" : 0,
					"patching_rect" : [ 19.0, 350.0, 63.0, 22.0 ],
					"style" : "",
					"text" : "send~ left"
				}

			}
, 			{
				"box" : 				{
					"args" : [ -5, ",", 5 ],
					"bgmode" : 0,
					"border" : 1,
					"clickthrough" : 0,
					"enablehscroll" : 0,
					"enablevscroll" : 0,
					"id" : "obj-44",
					"lockeddragscroll" : 0,
					"maxclass" : "bpatcher",
					"name" : "vj.scrubslider.maxpat",
					"numinlets" : 5,
					"numoutlets" : 2,
					"offset" : [ 0.0, 0.0 ],
					"outlettype" : [ "", "bang" ],
					"patching_rect" : [ 693.0, 460.0, 123.0, 55.0 ],
					"presentation" : 1,
					"presentation_rect" : [ 692.0, 266.0, 123.0, 55.0 ],
					"viewvisibility" : 1
				}

			}
, 			{
				"box" : 				{
					"bgmode" : 0,
					"border" : 0,
					"clickthrough" : 0,
					"enablehscroll" : 0,
					"enablevscroll" : 0,
					"id" : "obj-45",
					"lockeddragscroll" : 0,
					"maxclass" : "bpatcher",
					"name" : "vj.playbackcontrols_mini.maxpat",
					"numinlets" : 1,
					"numoutlets" : 3,
					"offset" : [ 0.0, 0.0 ],
					"outlettype" : [ "bang", "bang", "bang" ],
					"patching_rect" : [ 693.0, 422.0, 80.0, 32.0 ],
					"presentation" : 1,
					"presentation_rect" : [ 692.0, 236.0, 80.0, 32.0 ],
					"viewvisibility" : 1
				}

			}
, 			{
				"box" : 				{
					"args" : [ "Sound10" ],
					"bgmode" : 0,
					"border" : 0,
					"clickthrough" : 0,
					"enablehscroll" : 0,
					"enablevscroll" : 0,
					"id" : "obj-46",
					"lockeddragscroll" : 0,
					"maxclass" : "bpatcher",
					"name" : "vj.bufferplayback.maxpat",
					"numinlets" : 4,
					"numoutlets" : 2,
					"offset" : [ 0.0, 0.0 ],
					"outlettype" : [ "signal", "signal" ],
					"patching_rect" : [ 693.0, 522.0, 154.0, 80.0 ],
					"presentation" : 1,
					"presentation_rect" : [ 692.0, 320.0, 154.0, 80.0 ],
					"viewvisibility" : 1
				}

			}
, 			{
				"box" : 				{
					"args" : [ -5, ",", 5 ],
					"bgmode" : 0,
					"border" : 1,
					"clickthrough" : 0,
					"enablehscroll" : 0,
					"enablevscroll" : 0,
					"id" : "obj-47",
					"lockeddragscroll" : 0,
					"maxclass" : "bpatcher",
					"name" : "vj.scrubslider.maxpat",
					"numinlets" : 5,
					"numoutlets" : 2,
					"offset" : [ 0.0, 0.0 ],
					"outlettype" : [ "", "bang" ],
					"patching_rect" : [ 526.0, 460.0, 123.0, 55.0 ],
					"presentation" : 1,
					"presentation_rect" : [ 523.0, 266.0, 123.0, 55.0 ],
					"viewvisibility" : 1
				}

			}
, 			{
				"box" : 				{
					"bgmode" : 0,
					"border" : 0,
					"clickthrough" : 0,
					"enablehscroll" : 0,
					"enablevscroll" : 0,
					"id" : "obj-48",
					"lockeddragscroll" : 0,
					"maxclass" : "bpatcher",
					"name" : "vj.playbackcontrols_mini.maxpat",
					"numinlets" : 1,
					"numoutlets" : 3,
					"offset" : [ 0.0, 0.0 ],
					"outlettype" : [ "bang", "bang", "bang" ],
					"patching_rect" : [ 526.0, 422.0, 80.0, 32.0 ],
					"presentation" : 1,
					"presentation_rect" : [ 523.0, 236.0, 80.0, 32.0 ],
					"viewvisibility" : 1
				}

			}
, 			{
				"box" : 				{
					"args" : [ "Sound9" ],
					"bgmode" : 0,
					"border" : 0,
					"clickthrough" : 0,
					"enablehscroll" : 0,
					"enablevscroll" : 0,
					"id" : "obj-49",
					"lockeddragscroll" : 0,
					"maxclass" : "bpatcher",
					"name" : "vj.bufferplayback.maxpat",
					"numinlets" : 4,
					"numoutlets" : 2,
					"offset" : [ 0.0, 0.0 ],
					"outlettype" : [ "signal", "signal" ],
					"patching_rect" : [ 526.0, 522.0, 154.0, 80.0 ],
					"presentation" : 1,
					"presentation_rect" : [ 523.0, 320.0, 154.0, 80.0 ],
					"viewvisibility" : 1
				}

			}
, 			{
				"box" : 				{
					"args" : [ -5, 5 ],
					"bgmode" : 0,
					"border" : 1,
					"clickthrough" : 0,
					"enablehscroll" : 0,
					"enablevscroll" : 0,
					"id" : "obj-50",
					"lockeddragscroll" : 0,
					"maxclass" : "bpatcher",
					"name" : "vj.scrubslider.maxpat",
					"numinlets" : 5,
					"numoutlets" : 2,
					"offset" : [ 0.0, 0.0 ],
					"outlettype" : [ "", "bang" ],
					"patching_rect" : [ 360.0, 460.0, 123.0, 55.0 ],
					"presentation" : 1,
					"presentation_rect" : [ 355.0, 266.0, 123.0, 55.0 ],
					"viewvisibility" : 1
				}

			}
, 			{
				"box" : 				{
					"bgmode" : 0,
					"border" : 0,
					"clickthrough" : 0,
					"enablehscroll" : 0,
					"enablevscroll" : 0,
					"id" : "obj-51",
					"lockeddragscroll" : 0,
					"maxclass" : "bpatcher",
					"name" : "vj.playbackcontrols_mini.maxpat",
					"numinlets" : 1,
					"numoutlets" : 3,
					"offset" : [ 0.0, 0.0 ],
					"outlettype" : [ "bang", "bang", "bang" ],
					"patching_rect" : [ 360.0, 422.0, 80.0, 32.0 ],
					"presentation" : 1,
					"presentation_rect" : [ 355.0, 236.0, 80.0, 32.0 ],
					"viewvisibility" : 1
				}

			}
, 			{
				"box" : 				{
					"args" : [ "Sound8" ],
					"bgmode" : 0,
					"border" : 0,
					"clickthrough" : 0,
					"enablehscroll" : 0,
					"enablevscroll" : 0,
					"id" : "obj-52",
					"lockeddragscroll" : 0,
					"maxclass" : "bpatcher",
					"name" : "vj.bufferplayback.maxpat",
					"numinlets" : 4,
					"numoutlets" : 2,
					"offset" : [ 0.0, 0.0 ],
					"outlettype" : [ "signal", "signal" ],
					"patching_rect" : [ 360.0, 522.0, 154.0, 80.0 ],
					"presentation" : 1,
					"presentation_rect" : [ 355.0, 320.0, 154.0, 80.0 ],
					"viewvisibility" : 1
				}

			}
, 			{
				"box" : 				{
					"args" : [ -5, ",", 5 ],
					"bgmode" : 0,
					"border" : 1,
					"clickthrough" : 0,
					"enablehscroll" : 0,
					"enablevscroll" : 0,
					"id" : "obj-53",
					"lockeddragscroll" : 0,
					"maxclass" : "bpatcher",
					"name" : "vj.scrubslider.maxpat",
					"numinlets" : 5,
					"numoutlets" : 2,
					"offset" : [ 0.0, 0.0 ],
					"outlettype" : [ "", "bang" ],
					"patching_rect" : [ 194.0, 460.0, 123.0, 55.0 ],
					"presentation" : 1,
					"presentation_rect" : [ 186.0, 266.0, 123.0, 55.0 ],
					"viewvisibility" : 1
				}

			}
, 			{
				"box" : 				{
					"bgmode" : 0,
					"border" : 0,
					"clickthrough" : 0,
					"enablehscroll" : 0,
					"enablevscroll" : 0,
					"id" : "obj-54",
					"lockeddragscroll" : 0,
					"maxclass" : "bpatcher",
					"name" : "vj.playbackcontrols_mini.maxpat",
					"numinlets" : 1,
					"numoutlets" : 3,
					"offset" : [ 0.0, 0.0 ],
					"outlettype" : [ "bang", "bang", "bang" ],
					"patching_rect" : [ 194.0, 422.0, 80.0, 32.0 ],
					"presentation" : 1,
					"presentation_rect" : [ 186.0, 236.0, 80.0, 32.0 ],
					"viewvisibility" : 1
				}

			}
, 			{
				"box" : 				{
					"args" : [ "Sound7" ],
					"bgmode" : 0,
					"border" : 0,
					"clickthrough" : 0,
					"enablehscroll" : 0,
					"enablevscroll" : 0,
					"id" : "obj-55",
					"lockeddragscroll" : 0,
					"maxclass" : "bpatcher",
					"name" : "vj.bufferplayback.maxpat",
					"numinlets" : 4,
					"numoutlets" : 2,
					"offset" : [ 0.0, 0.0 ],
					"outlettype" : [ "signal", "signal" ],
					"patching_rect" : [ 194.0, 522.0, 154.0, 80.0 ],
					"presentation" : 1,
					"presentation_rect" : [ 186.0, 320.0, 154.0, 80.0 ],
					"viewvisibility" : 1
				}

			}
, 			{
				"box" : 				{
					"args" : [ -5, ",", 5 ],
					"bgmode" : 0,
					"border" : 1,
					"clickthrough" : 0,
					"enablehscroll" : 0,
					"enablevscroll" : 0,
					"id" : "obj-56",
					"lockeddragscroll" : 0,
					"maxclass" : "bpatcher",
					"name" : "vj.scrubslider.maxpat",
					"numinlets" : 5,
					"numoutlets" : 2,
					"offset" : [ 0.0, 0.0 ],
					"outlettype" : [ "", "bang" ],
					"patching_rect" : [ 27.0, 460.0, 122.0, 55.0 ],
					"presentation" : 1,
					"presentation_rect" : [ 18.0, 266.0, 123.0, 55.0 ],
					"viewvisibility" : 1
				}

			}
, 			{
				"box" : 				{
					"bgmode" : 0,
					"border" : 0,
					"clickthrough" : 0,
					"enablehscroll" : 0,
					"enablevscroll" : 0,
					"id" : "obj-57",
					"lockeddragscroll" : 0,
					"maxclass" : "bpatcher",
					"name" : "vj.playbackcontrols_mini.maxpat",
					"numinlets" : 1,
					"numoutlets" : 3,
					"offset" : [ 0.0, 0.0 ],
					"outlettype" : [ "bang", "bang", "bang" ],
					"patching_rect" : [ 27.0, 422.0, 80.0, 32.0 ],
					"presentation" : 1,
					"presentation_rect" : [ 19.0, 236.0, 80.0, 32.0 ],
					"viewvisibility" : 1
				}

			}
, 			{
				"box" : 				{
					"args" : [ "Sound6" ],
					"bgmode" : 0,
					"border" : 0,
					"clickthrough" : 0,
					"enablehscroll" : 0,
					"enablevscroll" : 0,
					"id" : "obj-58",
					"lockeddragscroll" : 0,
					"maxclass" : "bpatcher",
					"name" : "vj.bufferplayback.maxpat",
					"numinlets" : 4,
					"numoutlets" : 2,
					"offset" : [ 0.0, 0.0 ],
					"outlettype" : [ "signal", "signal" ],
					"patching_rect" : [ 27.0, 522.0, 154.0, 80.0 ],
					"presentation" : 1,
					"presentation_rect" : [ 18.0, 320.0, 154.0, 77.0 ],
					"viewvisibility" : 1
				}

			}
, 			{
				"box" : 				{
					"angle" : 0.0,
					"border" : 2,
					"bordercolor" : [ 0.32549, 0.345098, 0.372549, 1.0 ],
					"grad1" : [ 0.901961, 0.901961, 0.901961, 1.0 ],
					"grad2" : [ 1.0, 1.0, 1.0, 1.0 ],
					"id" : "obj-59",
					"maxclass" : "panel",
					"mode" : 1,
					"numinlets" : 1,
					"numoutlets" : 0,
					"patching_rect" : [ 787.0, 423.0, 27.0, 29.0 ],
					"presentation" : 1,
					"presentation_rect" : [ 685.0, 227.0, 166.0, 177.0 ],
					"proportion" : 0.39,
					"style" : ""
				}

			}
, 			{
				"box" : 				{
					"angle" : 0.0,
					"border" : 2,
					"bordercolor" : [ 0.32549, 0.345098, 0.372549, 1.0 ],
					"grad1" : [ 0.901961, 0.901961, 0.901961, 1.0 ],
					"grad2" : [ 1.0, 1.0, 1.0, 1.0 ],
					"id" : "obj-60",
					"maxclass" : "panel",
					"mode" : 1,
					"numinlets" : 1,
					"numoutlets" : 0,
					"patching_rect" : [ 620.0, 423.0, 27.0, 29.0 ],
					"presentation" : 1,
					"presentation_rect" : [ 516.0, 227.0, 166.0, 177.0 ],
					"proportion" : 0.39,
					"style" : ""
				}

			}
, 			{
				"box" : 				{
					"angle" : 0.0,
					"border" : 2,
					"bordercolor" : [ 0.32549, 0.345098, 0.372549, 1.0 ],
					"grad1" : [ 0.901961, 0.901961, 0.901961, 1.0 ],
					"grad2" : [ 1.0, 1.0, 1.0, 1.0 ],
					"id" : "obj-61",
					"maxclass" : "panel",
					"mode" : 1,
					"numinlets" : 1,
					"numoutlets" : 0,
					"patching_rect" : [ 450.0, 423.0, 27.0, 29.0 ],
					"presentation" : 1,
					"presentation_rect" : [ 347.0, 227.0, 166.0, 177.0 ],
					"proportion" : 0.39,
					"style" : ""
				}

			}
, 			{
				"box" : 				{
					"angle" : 0.0,
					"border" : 2,
					"bordercolor" : [ 0.32549, 0.345098, 0.372549, 1.0 ],
					"grad1" : [ 0.901961, 0.901961, 0.901961, 1.0 ],
					"grad2" : [ 1.0, 1.0, 1.0, 1.0 ],
					"id" : "obj-62",
					"maxclass" : "panel",
					"mode" : 1,
					"numinlets" : 1,
					"numoutlets" : 0,
					"patching_rect" : [ 281.0, 423.0, 27.0, 29.0 ],
					"presentation" : 1,
					"presentation_rect" : [ 178.0, 227.0, 166.0, 177.0 ],
					"proportion" : 0.39,
					"style" : ""
				}

			}
, 			{
				"box" : 				{
					"angle" : 0.0,
					"border" : 2,
					"bordercolor" : [ 0.32549, 0.345098, 0.372549, 1.0 ],
					"grad1" : [ 0.901961, 0.901961, 0.901961, 1.0 ],
					"grad2" : [ 1.0, 1.0, 1.0, 1.0 ],
					"id" : "obj-63",
					"maxclass" : "panel",
					"mode" : 1,
					"numinlets" : 1,
					"numoutlets" : 0,
					"patching_rect" : [ 119.0, 423.0, 29.0, 30.0 ],
					"presentation" : 1,
					"presentation_rect" : [ 9.0, 227.0, 166.0, 177.0 ],
					"proportion" : 0.39,
					"style" : ""
				}

			}
, 			{
				"box" : 				{
					"bgcolor" : [ 1.0, 0.788235, 0.470588, 1.0 ],
					"bgoncolor" : [ 0.55, 0.55, 0.55, 1.0 ],
					"fontface" : 1,
					"fontsize" : 13.0,
					"hint" : "",
					"id" : "obj-20",
					"ignoreclick" : 1,
					"legacytextcolor" : 1,
					"maxclass" : "textbutton",
					"numinlets" : 1,
					"numoutlets" : 3,
					"outlettype" : [ "", "", "int" ],
					"parameter_enable" : 0,
					"patching_rect" : [ 432.5, 277.0, 20.0, 20.0 ],
					"presentation" : 1,
					"presentation_rect" : [ 146.5, 89.0, 20.0, 20.0 ],
					"rounded" : 60.0,
					"style" : "",
					"text" : "4",
					"textcolor" : [ 0.34902, 0.34902, 0.34902, 1.0 ],
					"textoncolor" : [ 1.0, 1.0, 1.0, 1.0 ],
					"textovercolor" : [ 0.2, 0.2, 0.2, 1.0 ],
					"usebgoncolor" : 1,
					"usetextovercolor" : 1
				}

			}
, 			{
				"box" : 				{
					"bgcolor" : [ 1.0, 0.788235, 0.470588, 1.0 ],
					"bgoncolor" : [ 0.55, 0.55, 0.55, 1.0 ],
					"fontface" : 1,
					"fontsize" : 13.0,
					"hint" : "",
					"id" : "obj-88",
					"ignoreclick" : 1,
					"legacytextcolor" : 1,
					"maxclass" : "textbutton",
					"numinlets" : 1,
					"numoutlets" : 3,
					"outlettype" : [ "", "", "int" ],
					"parameter_enable" : 0,
					"patching_rect" : [ 302.0, 277.0, 20.0, 20.0 ],
					"presentation" : 1,
					"presentation_rect" : [ 2.5, 118.0, 20.0, 20.0 ],
					"rounded" : 60.0,
					"style" : "",
					"text" : "1",
					"textcolor" : [ 0.34902, 0.34902, 0.34902, 1.0 ],
					"textoncolor" : [ 1.0, 1.0, 1.0, 1.0 ],
					"textovercolor" : [ 0.2, 0.2, 0.2, 1.0 ],
					"usebgoncolor" : 1,
					"usetextovercolor" : 1
				}

			}
, 			{
				"box" : 				{
					"bgcolor" : [ 1.0, 0.788235, 0.470588, 1.0 ],
					"bgoncolor" : [ 0.55, 0.55, 0.55, 1.0 ],
					"fontface" : 1,
					"fontsize" : 13.0,
					"hint" : "",
					"id" : "obj-87",
					"ignoreclick" : 1,
					"legacytextcolor" : 1,
					"maxclass" : "textbutton",
					"numinlets" : 1,
					"numoutlets" : 3,
					"outlettype" : [ "", "", "int" ],
					"parameter_enable" : 0,
					"patching_rect" : [ 393.5, 277.0, 20.0, 20.0 ],
					"presentation" : 1,
					"presentation_rect" : [ 2.5, 62.0, 20.0, 20.0 ],
					"rounded" : 60.0,
					"style" : "",
					"text" : "3",
					"textcolor" : [ 0.34902, 0.34902, 0.34902, 1.0 ],
					"textoncolor" : [ 1.0, 1.0, 1.0, 1.0 ],
					"textovercolor" : [ 0.2, 0.2, 0.2, 1.0 ],
					"usebgoncolor" : 1,
					"usetextovercolor" : 1
				}

			}
, 			{
				"box" : 				{
					"bgcolor" : [ 1.0, 0.788235, 0.470588, 1.0 ],
					"bgoncolor" : [ 0.55, 0.55, 0.55, 1.0 ],
					"fontface" : 1,
					"fontsize" : 13.0,
					"hint" : "",
					"id" : "obj-89",
					"ignoreclick" : 1,
					"legacytextcolor" : 1,
					"maxclass" : "textbutton",
					"numinlets" : 1,
					"numoutlets" : 3,
					"outlettype" : [ "", "", "int" ],
					"parameter_enable" : 0,
					"patching_rect" : [ 350.5, 277.0, 20.0, 20.0 ],
					"presentation" : 1,
					"presentation_rect" : [ 2.5, 24.0, 20.0, 20.0 ],
					"rounded" : 60.0,
					"style" : "",
					"text" : "2",
					"textcolor" : [ 0.34902, 0.34902, 0.34902, 1.0 ],
					"textoncolor" : [ 1.0, 1.0, 1.0, 1.0 ],
					"textovercolor" : [ 0.2, 0.2, 0.2, 1.0 ],
					"usebgoncolor" : 1,
					"usetextovercolor" : 1
				}

			}
, 			{
				"box" : 				{
					"args" : [ -5, ",", 5 ],
					"bgmode" : 0,
					"border" : 1,
					"clickthrough" : 0,
					"enablehscroll" : 0,
					"enablevscroll" : 0,
					"id" : "obj-17",
					"lockeddragscroll" : 0,
					"maxclass" : "bpatcher",
					"name" : "vj.scrubslider.maxpat",
					"numinlets" : 5,
					"numoutlets" : 2,
					"offset" : [ 0.0, 0.0 ],
					"outlettype" : [ "", "bang" ],
					"patching_rect" : [ 685.0, 53.0, 123.0, 55.0 ],
					"presentation" : 1,
					"presentation_rect" : [ 693.0, 55.0, 123.0, 55.0 ],
					"viewvisibility" : 1
				}

			}
, 			{
				"box" : 				{
					"bgmode" : 0,
					"border" : 1,
					"clickthrough" : 0,
					"enablehscroll" : 0,
					"enablevscroll" : 0,
					"id" : "obj-18",
					"lockeddragscroll" : 0,
					"maxclass" : "bpatcher",
					"name" : "vj.playbackcontrols_mini.maxpat",
					"numinlets" : 1,
					"numoutlets" : 3,
					"offset" : [ 0.0, 0.0 ],
					"outlettype" : [ "bang", "bang", "bang" ],
					"patching_rect" : [ 685.0, 15.0, 80.0, 32.0 ],
					"presentation" : 1,
					"presentation_rect" : [ 693.0, 25.0, 80.0, 32.0 ],
					"viewvisibility" : 1
				}

			}
, 			{
				"box" : 				{
					"args" : [ "Sound5" ],
					"bgmode" : 0,
					"border" : 0,
					"clickthrough" : 0,
					"enablehscroll" : 0,
					"enablevscroll" : 0,
					"id" : "obj-19",
					"lockeddragscroll" : 0,
					"maxclass" : "bpatcher",
					"name" : "vj.bufferplayback.maxpat",
					"numinlets" : 4,
					"numoutlets" : 2,
					"offset" : [ 0.0, 0.0 ],
					"outlettype" : [ "signal", "signal" ],
					"patching_rect" : [ 685.0, 115.0, 154.0, 80.0 ],
					"presentation" : 1,
					"presentation_rect" : [ 693.0, 109.0, 154.0, 80.0 ],
					"viewvisibility" : 1
				}

			}
, 			{
				"box" : 				{
					"args" : [ -5, ",", 5 ],
					"bgmode" : 0,
					"border" : 1,
					"clickthrough" : 0,
					"enablehscroll" : 0,
					"enablevscroll" : 0,
					"id" : "obj-14",
					"lockeddragscroll" : 0,
					"maxclass" : "bpatcher",
					"name" : "vj.scrubslider.maxpat",
					"numinlets" : 5,
					"numoutlets" : 2,
					"offset" : [ 0.0, 0.0 ],
					"outlettype" : [ "", "bang" ],
					"patching_rect" : [ 518.0, 53.0, 123.0, 55.0 ],
					"presentation" : 1,
					"presentation_rect" : [ 524.0, 55.0, 123.0, 55.0 ],
					"viewvisibility" : 1
				}

			}
, 			{
				"box" : 				{
					"bgmode" : 0,
					"border" : 1,
					"clickthrough" : 0,
					"enablehscroll" : 0,
					"enablevscroll" : 0,
					"id" : "obj-15",
					"lockeddragscroll" : 0,
					"maxclass" : "bpatcher",
					"name" : "vj.playbackcontrols_mini.maxpat",
					"numinlets" : 1,
					"numoutlets" : 3,
					"offset" : [ 0.0, 0.0 ],
					"outlettype" : [ "bang", "bang", "bang" ],
					"patching_rect" : [ 518.0, 15.0, 80.0, 32.0 ],
					"presentation" : 1,
					"presentation_rect" : [ 524.0, 25.0, 80.0, 32.0 ],
					"viewvisibility" : 1
				}

			}
, 			{
				"box" : 				{
					"args" : [ "Sound4" ],
					"bgmode" : 0,
					"border" : 0,
					"clickthrough" : 0,
					"enablehscroll" : 0,
					"enablevscroll" : 0,
					"id" : "obj-16",
					"lockeddragscroll" : 0,
					"maxclass" : "bpatcher",
					"name" : "vj.bufferplayback.maxpat",
					"numinlets" : 4,
					"numoutlets" : 2,
					"offset" : [ 0.0, 0.0 ],
					"outlettype" : [ "signal", "signal" ],
					"patching_rect" : [ 518.0, 115.0, 154.0, 80.0 ],
					"presentation" : 1,
					"presentation_rect" : [ 524.0, 109.0, 154.0, 80.0 ],
					"viewvisibility" : 1
				}

			}
, 			{
				"box" : 				{
					"args" : [ -5, 5 ],
					"bgmode" : 0,
					"border" : 1,
					"clickthrough" : 0,
					"enablehscroll" : 0,
					"enablevscroll" : 0,
					"id" : "obj-10",
					"lockeddragscroll" : 0,
					"maxclass" : "bpatcher",
					"name" : "vj.scrubslider.maxpat",
					"numinlets" : 5,
					"numoutlets" : 2,
					"offset" : [ 0.0, 0.0 ],
					"outlettype" : [ "", "bang" ],
					"patching_rect" : [ 352.0, 53.0, 123.0, 55.0 ],
					"presentation" : 1,
					"presentation_rect" : [ 356.0, 55.0, 123.0, 55.0 ],
					"viewvisibility" : 1
				}

			}
, 			{
				"box" : 				{
					"bgmode" : 0,
					"border" : 1,
					"clickthrough" : 0,
					"enablehscroll" : 0,
					"enablevscroll" : 0,
					"id" : "obj-11",
					"lockeddragscroll" : 0,
					"maxclass" : "bpatcher",
					"name" : "vj.playbackcontrols_mini.maxpat",
					"numinlets" : 1,
					"numoutlets" : 3,
					"offset" : [ 0.0, 0.0 ],
					"outlettype" : [ "bang", "bang", "bang" ],
					"patching_rect" : [ 352.0, 15.0, 80.0, 32.0 ],
					"presentation" : 1,
					"presentation_rect" : [ 356.0, 25.0, 80.0, 32.0 ],
					"viewvisibility" : 1
				}

			}
, 			{
				"box" : 				{
					"args" : [ "Sound3" ],
					"bgmode" : 0,
					"border" : 0,
					"clickthrough" : 0,
					"enablehscroll" : 0,
					"enablevscroll" : 0,
					"id" : "obj-13",
					"lockeddragscroll" : 0,
					"maxclass" : "bpatcher",
					"name" : "vj.bufferplayback.maxpat",
					"numinlets" : 4,
					"numoutlets" : 2,
					"offset" : [ 0.0, 0.0 ],
					"outlettype" : [ "signal", "signal" ],
					"patching_rect" : [ 352.0, 115.0, 154.0, 80.0 ],
					"presentation" : 1,
					"presentation_rect" : [ 356.0, 109.0, 154.0, 80.0 ],
					"viewvisibility" : 1
				}

			}
, 			{
				"box" : 				{
					"args" : [ -5, ",", 5 ],
					"bgmode" : 0,
					"border" : 1,
					"clickthrough" : 0,
					"enablehscroll" : 0,
					"enablevscroll" : 0,
					"id" : "obj-7",
					"lockeddragscroll" : 0,
					"maxclass" : "bpatcher",
					"name" : "vj.scrubslider.maxpat",
					"numinlets" : 5,
					"numoutlets" : 2,
					"offset" : [ 0.0, 0.0 ],
					"outlettype" : [ "", "bang" ],
					"patching_rect" : [ 186.0, 53.0, 123.0, 55.0 ],
					"presentation" : 1,
					"presentation_rect" : [ 187.0, 55.0, 123.0, 55.0 ],
					"viewvisibility" : 1
				}

			}
, 			{
				"box" : 				{
					"bgmode" : 0,
					"border" : 1,
					"clickthrough" : 0,
					"enablehscroll" : 0,
					"enablevscroll" : 0,
					"id" : "obj-8",
					"lockeddragscroll" : 0,
					"maxclass" : "bpatcher",
					"name" : "vj.playbackcontrols_mini.maxpat",
					"numinlets" : 1,
					"numoutlets" : 3,
					"offset" : [ 0.0, 0.0 ],
					"outlettype" : [ "bang", "bang", "bang" ],
					"patching_rect" : [ 186.0, 15.0, 80.0, 32.0 ],
					"presentation" : 1,
					"presentation_rect" : [ 187.0, 25.0, 80.0, 32.0 ],
					"viewvisibility" : 1
				}

			}
, 			{
				"box" : 				{
					"args" : [ "Sound2" ],
					"bgmode" : 0,
					"border" : 0,
					"clickthrough" : 0,
					"enablehscroll" : 0,
					"enablevscroll" : 0,
					"id" : "obj-9",
					"lockeddragscroll" : 0,
					"maxclass" : "bpatcher",
					"name" : "vj.bufferplayback.maxpat",
					"numinlets" : 4,
					"numoutlets" : 2,
					"offset" : [ 0.0, 0.0 ],
					"outlettype" : [ "signal", "signal" ],
					"patching_rect" : [ 186.0, 115.0, 154.0, 80.0 ],
					"presentation" : 1,
					"presentation_rect" : [ 187.0, 109.0, 154.0, 80.0 ],
					"viewvisibility" : 1
				}

			}
, 			{
				"box" : 				{
					"bgmode" : 0,
					"border" : 0,
					"clickthrough" : 0,
					"enablehscroll" : 0,
					"enablevscroll" : 0,
					"id" : "obj-6",
					"lockeddragscroll" : 0,
					"maxclass" : "bpatcher",
					"name" : "vj.audiorecorder.maxpat",
					"numinlets" : 2,
					"numoutlets" : 2,
					"offset" : [ 0.0, 0.0 ],
					"outlettype" : [ "signal", "signal" ],
					"patching_rect" : [ 19.0, 223.0, 91.0, 100.0 ],
					"presentation" : 1,
					"presentation_rect" : [ 855.0, 55.0, 91.0, 100.0 ],
					"viewvisibility" : 1
				}

			}
, 			{
				"box" : 				{
					"args" : [ -5, ",", 5 ],
					"bgmode" : 0,
					"border" : 1,
					"clickthrough" : 0,
					"enablehscroll" : 0,
					"enablevscroll" : 0,
					"id" : "obj-81",
					"lockeddragscroll" : 0,
					"maxclass" : "bpatcher",
					"name" : "vj.scrubslider.maxpat",
					"numinlets" : 5,
					"numoutlets" : 2,
					"offset" : [ 0.0, 0.0 ],
					"outlettype" : [ "", "bang" ],
					"patching_rect" : [ 19.0, 53.0, 122.0, 55.0 ],
					"presentation" : 1,
					"presentation_rect" : [ 19.0, 55.0, 123.0, 55.0 ],
					"viewvisibility" : 1
				}

			}
, 			{
				"box" : 				{
					"bgmode" : 0,
					"border" : 1,
					"clickthrough" : 0,
					"enablehscroll" : 0,
					"enablevscroll" : 0,
					"id" : "obj-70",
					"lockeddragscroll" : 0,
					"maxclass" : "bpatcher",
					"name" : "vj.playbackcontrols_mini.maxpat",
					"numinlets" : 1,
					"numoutlets" : 3,
					"offset" : [ 0.0, 0.0 ],
					"outlettype" : [ "bang", "bang", "bang" ],
					"patching_rect" : [ 19.0, 15.0, 80.0, 32.0 ],
					"presentation" : 1,
					"presentation_rect" : [ 20.0, 25.0, 80.0, 32.0 ],
					"viewvisibility" : 1
				}

			}
, 			{
				"box" : 				{
					"args" : [ "Sound1" ],
					"bgmode" : 0,
					"border" : 0,
					"clickthrough" : 0,
					"enablehscroll" : 0,
					"enablevscroll" : 0,
					"id" : "obj-86",
					"lockeddragscroll" : 0,
					"maxclass" : "bpatcher",
					"name" : "vj.bufferplayback.maxpat",
					"numinlets" : 4,
					"numoutlets" : 2,
					"offset" : [ 0.0, 0.0 ],
					"outlettype" : [ "signal", "signal" ],
					"patching_rect" : [ 19.0, 115.0, 154.0, 80.0 ],
					"presentation" : 1,
					"presentation_rect" : [ 19.0, 109.0, 154.0, 77.0 ],
					"viewvisibility" : 1
				}

			}
, 			{
				"box" : 				{
					"angle" : 0.0,
					"border" : 2,
					"bordercolor" : [ 0.32549, 0.345098, 0.372549, 1.0 ],
					"grad1" : [ 0.901961, 0.901961, 0.901961, 1.0 ],
					"grad2" : [ 1.0, 1.0, 1.0, 1.0 ],
					"id" : "obj-5",
					"maxclass" : "panel",
					"mode" : 1,
					"numinlets" : 1,
					"numoutlets" : 0,
					"patching_rect" : [ 779.0, 16.0, 27.0, 29.0 ],
					"presentation" : 1,
					"presentation_rect" : [ 686.0, 16.0, 166.0, 177.0 ],
					"proportion" : 0.39,
					"style" : ""
				}

			}
, 			{
				"box" : 				{
					"angle" : 0.0,
					"border" : 2,
					"bordercolor" : [ 0.32549, 0.345098, 0.372549, 1.0 ],
					"grad1" : [ 0.901961, 0.901961, 0.901961, 1.0 ],
					"grad2" : [ 1.0, 1.0, 1.0, 1.0 ],
					"id" : "obj-4",
					"maxclass" : "panel",
					"mode" : 1,
					"numinlets" : 1,
					"numoutlets" : 0,
					"patching_rect" : [ 612.0, 16.0, 27.0, 29.0 ],
					"presentation" : 1,
					"presentation_rect" : [ 517.0, 16.0, 166.0, 177.0 ],
					"proportion" : 0.39,
					"style" : ""
				}

			}
, 			{
				"box" : 				{
					"angle" : 0.0,
					"border" : 2,
					"bordercolor" : [ 0.32549, 0.345098, 0.372549, 1.0 ],
					"grad1" : [ 0.901961, 0.901961, 0.901961, 1.0 ],
					"grad2" : [ 1.0, 1.0, 1.0, 1.0 ],
					"id" : "obj-3",
					"maxclass" : "panel",
					"mode" : 1,
					"numinlets" : 1,
					"numoutlets" : 0,
					"patching_rect" : [ 442.0, 16.0, 27.0, 29.0 ],
					"presentation" : 1,
					"presentation_rect" : [ 348.0, 16.0, 166.0, 177.0 ],
					"proportion" : 0.39,
					"style" : ""
				}

			}
, 			{
				"box" : 				{
					"angle" : 0.0,
					"border" : 2,
					"bordercolor" : [ 0.32549, 0.345098, 0.372549, 1.0 ],
					"grad1" : [ 0.901961, 0.901961, 0.901961, 1.0 ],
					"grad2" : [ 1.0, 1.0, 1.0, 1.0 ],
					"id" : "obj-2",
					"maxclass" : "panel",
					"mode" : 1,
					"numinlets" : 1,
					"numoutlets" : 0,
					"patching_rect" : [ 273.0, 16.0, 27.0, 29.0 ],
					"presentation" : 1,
					"presentation_rect" : [ 179.0, 16.0, 166.0, 177.0 ],
					"proportion" : 0.39,
					"style" : ""
				}

			}
, 			{
				"box" : 				{
					"angle" : 0.0,
					"border" : 2,
					"bordercolor" : [ 0.32549, 0.345098, 0.372549, 1.0 ],
					"grad1" : [ 0.901961, 0.901961, 0.901961, 1.0 ],
					"grad2" : [ 1.0, 1.0, 1.0, 1.0 ],
					"id" : "obj-1",
					"maxclass" : "panel",
					"mode" : 1,
					"numinlets" : 1,
					"numoutlets" : 0,
					"patching_rect" : [ 111.0, 16.0, 29.0, 30.0 ],
					"presentation" : 1,
					"presentation_rect" : [ 10.0, 16.0, 166.0, 177.0 ],
					"proportion" : 0.39,
					"style" : ""
				}

			}
 ],
		"lines" : [ 			{
				"patchline" : 				{
					"destination" : [ "obj-13", 1 ],
					"disabled" : 0,
					"hidden" : 0,
					"midpoints" : [ 465.5, 108.0, 406.5, 108.0 ],
					"source" : [ "obj-10", 1 ]
				}

			}
, 			{
				"patchline" : 				{
					"destination" : [ "obj-13", 0 ],
					"disabled" : 0,
					"hidden" : 0,
					"source" : [ "obj-10", 0 ]
				}

			}
, 			{
				"patchline" : 				{
					"destination" : [ "obj-10", 2 ],
					"disabled" : 0,
					"hidden" : 0,
					"midpoints" : [ 422.5, 44.0, 413.5, 44.0 ],
					"source" : [ "obj-11", 2 ]
				}

			}
, 			{
				"patchline" : 				{
					"destination" : [ "obj-10", 1 ],
					"disabled" : 0,
					"hidden" : 0,
					"source" : [ "obj-11", 1 ]
				}

			}
, 			{
				"patchline" : 				{
					"destination" : [ "obj-10", 0 ],
					"disabled" : 0,
					"hidden" : 0,
					"source" : [ "obj-11", 0 ]
				}

			}
, 			{
				"patchline" : 				{
					"destination" : [ "obj-6", 1 ],
					"disabled" : 0,
					"hidden" : 0,
					"midpoints" : [ 496.5, 208.5, 100.5, 208.5 ],
					"source" : [ "obj-13", 1 ]
				}

			}
, 			{
				"patchline" : 				{
					"destination" : [ "obj-6", 0 ],
					"disabled" : 0,
					"hidden" : 0,
					"midpoints" : [ 361.5, 208.5, 28.5, 208.5 ],
					"source" : [ "obj-13", 0 ]
				}

			}
, 			{
				"patchline" : 				{
					"destination" : [ "obj-16", 1 ],
					"disabled" : 0,
					"hidden" : 0,
					"midpoints" : [ 631.5, 108.0, 572.5, 108.0 ],
					"source" : [ "obj-14", 1 ]
				}

			}
, 			{
				"patchline" : 				{
					"destination" : [ "obj-16", 0 ],
					"disabled" : 0,
					"hidden" : 0,
					"source" : [ "obj-14", 0 ]
				}

			}
, 			{
				"patchline" : 				{
					"destination" : [ "obj-14", 2 ],
					"disabled" : 0,
					"hidden" : 0,
					"midpoints" : [ 588.5, 44.0, 579.5, 44.0 ],
					"source" : [ "obj-15", 2 ]
				}

			}
, 			{
				"patchline" : 				{
					"destination" : [ "obj-14", 1 ],
					"disabled" : 0,
					"hidden" : 0,
					"source" : [ "obj-15", 1 ]
				}

			}
, 			{
				"patchline" : 				{
					"destination" : [ "obj-14", 0 ],
					"disabled" : 0,
					"hidden" : 0,
					"source" : [ "obj-15", 0 ]
				}

			}
, 			{
				"patchline" : 				{
					"destination" : [ "obj-6", 1 ],
					"disabled" : 0,
					"hidden" : 0,
					"midpoints" : [ 662.5, 208.5, 100.5, 208.5 ],
					"source" : [ "obj-16", 1 ]
				}

			}
, 			{
				"patchline" : 				{
					"destination" : [ "obj-6", 0 ],
					"disabled" : 0,
					"hidden" : 0,
					"midpoints" : [ 527.5, 208.5, 28.5, 208.5 ],
					"source" : [ "obj-16", 0 ]
				}

			}
, 			{
				"patchline" : 				{
					"destination" : [ "obj-19", 1 ],
					"disabled" : 0,
					"hidden" : 0,
					"midpoints" : [ 798.5, 109.0, 739.5, 109.0 ],
					"source" : [ "obj-17", 1 ]
				}

			}
, 			{
				"patchline" : 				{
					"destination" : [ "obj-19", 0 ],
					"disabled" : 0,
					"hidden" : 0,
					"source" : [ "obj-17", 0 ]
				}

			}
, 			{
				"patchline" : 				{
					"destination" : [ "obj-17", 2 ],
					"disabled" : 0,
					"hidden" : 0,
					"midpoints" : [ 755.5, 45.0, 746.5, 45.0 ],
					"source" : [ "obj-18", 2 ]
				}

			}
, 			{
				"patchline" : 				{
					"destination" : [ "obj-17", 1 ],
					"disabled" : 0,
					"hidden" : 0,
					"source" : [ "obj-18", 1 ]
				}

			}
, 			{
				"patchline" : 				{
					"destination" : [ "obj-17", 0 ],
					"disabled" : 0,
					"hidden" : 0,
					"source" : [ "obj-18", 0 ]
				}

			}
, 			{
				"patchline" : 				{
					"destination" : [ "obj-6", 1 ],
					"disabled" : 0,
					"hidden" : 0,
					"midpoints" : [ 829.5, 208.5, 100.5, 208.5 ],
					"source" : [ "obj-19", 1 ]
				}

			}
, 			{
				"patchline" : 				{
					"destination" : [ "obj-6", 0 ],
					"disabled" : 0,
					"hidden" : 0,
					"midpoints" : [ 694.5, 208.5, 28.5, 208.5 ],
					"source" : [ "obj-19", 0 ]
				}

			}
, 			{
				"patchline" : 				{
					"destination" : [ "obj-21", 0 ],
					"disabled" : 0,
					"hidden" : 0,
					"source" : [ "obj-22", 0 ]
				}

			}
, 			{
				"patchline" : 				{
					"destination" : [ "obj-46", 1 ],
					"disabled" : 0,
					"hidden" : 0,
					"midpoints" : [ 806.5, 516.0, 747.5, 516.0 ],
					"source" : [ "obj-44", 1 ]
				}

			}
, 			{
				"patchline" : 				{
					"destination" : [ "obj-46", 0 ],
					"disabled" : 0,
					"hidden" : 0,
					"source" : [ "obj-44", 0 ]
				}

			}
, 			{
				"patchline" : 				{
					"destination" : [ "obj-44", 2 ],
					"disabled" : 0,
					"hidden" : 0,
					"midpoints" : [ 763.5, 452.0, 754.5, 452.0 ],
					"source" : [ "obj-45", 2 ]
				}

			}
, 			{
				"patchline" : 				{
					"destination" : [ "obj-44", 1 ],
					"disabled" : 0,
					"hidden" : 0,
					"source" : [ "obj-45", 1 ]
				}

			}
, 			{
				"patchline" : 				{
					"destination" : [ "obj-44", 0 ],
					"disabled" : 0,
					"hidden" : 0,
					"source" : [ "obj-45", 0 ]
				}

			}
, 			{
				"patchline" : 				{
					"destination" : [ "obj-6", 1 ],
					"disabled" : 0,
					"hidden" : 0,
					"midpoints" : [ 837.5, 611.0, 870.0, 611.0, 870.0, 213.0, 100.5, 213.0 ],
					"source" : [ "obj-46", 1 ]
				}

			}
, 			{
				"patchline" : 				{
					"destination" : [ "obj-6", 0 ],
					"disabled" : 0,
					"hidden" : 0,
					"midpoints" : [ 702.5, 611.0, 896.5, 611.0, 896.5, 213.0, 28.5, 213.0 ],
					"source" : [ "obj-46", 0 ]
				}

			}
, 			{
				"patchline" : 				{
					"destination" : [ "obj-49", 1 ],
					"disabled" : 0,
					"hidden" : 0,
					"midpoints" : [ 639.5, 515.0, 580.5, 515.0 ],
					"source" : [ "obj-47", 1 ]
				}

			}
, 			{
				"patchline" : 				{
					"destination" : [ "obj-49", 0 ],
					"disabled" : 0,
					"hidden" : 0,
					"source" : [ "obj-47", 0 ]
				}

			}
, 			{
				"patchline" : 				{
					"destination" : [ "obj-47", 2 ],
					"disabled" : 0,
					"hidden" : 0,
					"midpoints" : [ 596.5, 451.0, 587.5, 451.0 ],
					"source" : [ "obj-48", 2 ]
				}

			}
, 			{
				"patchline" : 				{
					"destination" : [ "obj-47", 1 ],
					"disabled" : 0,
					"hidden" : 0,
					"source" : [ "obj-48", 1 ]
				}

			}
, 			{
				"patchline" : 				{
					"destination" : [ "obj-47", 0 ],
					"disabled" : 0,
					"hidden" : 0,
					"source" : [ "obj-48", 0 ]
				}

			}
, 			{
				"patchline" : 				{
					"destination" : [ "obj-6", 1 ],
					"disabled" : 0,
					"hidden" : 0,
					"midpoints" : [ 670.5, 611.0, 881.5, 611.0, 881.5, 213.0, 100.5, 213.0 ],
					"source" : [ "obj-49", 1 ]
				}

			}
, 			{
				"patchline" : 				{
					"destination" : [ "obj-6", 0 ],
					"disabled" : 0,
					"hidden" : 0,
					"midpoints" : [ 535.5, 611.0, 922.0, 611.0, 922.0, 213.0, 28.5, 213.0 ],
					"source" : [ "obj-49", 0 ]
				}

			}
, 			{
				"patchline" : 				{
					"destination" : [ "obj-52", 1 ],
					"disabled" : 0,
					"hidden" : 0,
					"midpoints" : [ 473.5, 515.0, 414.5, 515.0 ],
					"source" : [ "obj-50", 1 ]
				}

			}
, 			{
				"patchline" : 				{
					"destination" : [ "obj-52", 0 ],
					"disabled" : 0,
					"hidden" : 0,
					"source" : [ "obj-50", 0 ]
				}

			}
, 			{
				"patchline" : 				{
					"destination" : [ "obj-50", 2 ],
					"disabled" : 0,
					"hidden" : 0,
					"midpoints" : [ 430.5, 451.0, 421.5, 451.0 ],
					"source" : [ "obj-51", 2 ]
				}

			}
, 			{
				"patchline" : 				{
					"destination" : [ "obj-50", 1 ],
					"disabled" : 0,
					"hidden" : 0,
					"source" : [ "obj-51", 1 ]
				}

			}
, 			{
				"patchline" : 				{
					"destination" : [ "obj-50", 0 ],
					"disabled" : 0,
					"hidden" : 0,
					"source" : [ "obj-51", 0 ]
				}

			}
, 			{
				"patchline" : 				{
					"destination" : [ "obj-6", 1 ],
					"disabled" : 0,
					"hidden" : 0,
					"midpoints" : [ 504.5, 611.0, 909.5, 611.0, 909.5, 213.0, 100.5, 213.0 ],
					"source" : [ "obj-52", 1 ]
				}

			}
, 			{
				"patchline" : 				{
					"destination" : [ "obj-6", 0 ],
					"disabled" : 0,
					"hidden" : 0,
					"midpoints" : [ 369.5, 611.0, 944.0, 611.0, 944.0, 213.0, 28.5, 213.0 ],
					"source" : [ "obj-52", 0 ]
				}

			}
, 			{
				"patchline" : 				{
					"destination" : [ "obj-55", 1 ],
					"disabled" : 0,
					"hidden" : 0,
					"midpoints" : [ 307.5, 515.0, 248.5, 515.0 ],
					"source" : [ "obj-53", 1 ]
				}

			}
, 			{
				"patchline" : 				{
					"destination" : [ "obj-55", 0 ],
					"disabled" : 0,
					"hidden" : 0,
					"source" : [ "obj-53", 0 ]
				}

			}
, 			{
				"patchline" : 				{
					"destination" : [ "obj-53", 2 ],
					"disabled" : 0,
					"hidden" : 0,
					"midpoints" : [ 264.5, 451.0, 255.5, 451.0 ],
					"source" : [ "obj-54", 2 ]
				}

			}
, 			{
				"patchline" : 				{
					"destination" : [ "obj-53", 1 ],
					"disabled" : 0,
					"hidden" : 0,
					"source" : [ "obj-54", 1 ]
				}

			}
, 			{
				"patchline" : 				{
					"destination" : [ "obj-53", 0 ],
					"disabled" : 0,
					"hidden" : 0,
					"source" : [ "obj-54", 0 ]
				}

			}
, 			{
				"patchline" : 				{
					"destination" : [ "obj-6", 1 ],
					"disabled" : 0,
					"hidden" : 0,
					"midpoints" : [ 338.5, 611.0, 934.5, 611.0, 934.5, 213.0, 100.5, 213.0 ],
					"source" : [ "obj-55", 1 ]
				}

			}
, 			{
				"patchline" : 				{
					"destination" : [ "obj-6", 0 ],
					"disabled" : 0,
					"hidden" : 0,
					"midpoints" : [ 203.5, 611.0, 967.0, 611.0, 967.0, 213.0, 28.5, 213.0 ],
					"source" : [ "obj-55", 0 ]
				}

			}
, 			{
				"patchline" : 				{
					"destination" : [ "obj-58", 1 ],
					"disabled" : 0,
					"hidden" : 0,
					"midpoints" : [ 139.5, 517.0, 81.5, 517.0 ],
					"source" : [ "obj-56", 1 ]
				}

			}
, 			{
				"patchline" : 				{
					"destination" : [ "obj-58", 0 ],
					"disabled" : 0,
					"hidden" : 0,
					"source" : [ "obj-56", 0 ]
				}

			}
, 			{
				"patchline" : 				{
					"destination" : [ "obj-56", 2 ],
					"disabled" : 0,
					"hidden" : 0,
					"midpoints" : [ 97.5, 453.0, 88.0, 453.0 ],
					"source" : [ "obj-57", 2 ]
				}

			}
, 			{
				"patchline" : 				{
					"destination" : [ "obj-56", 1 ],
					"disabled" : 0,
					"hidden" : 0,
					"source" : [ "obj-57", 1 ]
				}

			}
, 			{
				"patchline" : 				{
					"destination" : [ "obj-56", 0 ],
					"disabled" : 0,
					"hidden" : 0,
					"source" : [ "obj-57", 0 ]
				}

			}
, 			{
				"patchline" : 				{
					"destination" : [ "obj-6", 1 ],
					"disabled" : 0,
					"hidden" : 0,
					"midpoints" : [ 171.5, 611.0, 955.0, 611.0, 955.0, 213.0, 100.5, 213.0 ],
					"source" : [ "obj-58", 1 ]
				}

			}
, 			{
				"patchline" : 				{
					"destination" : [ "obj-6", 0 ],
					"disabled" : 0,
					"hidden" : 0,
					"midpoints" : [ 36.5, 611.0, 978.5, 611.0, 978.5, 213.0, 28.5, 213.0 ],
					"source" : [ "obj-58", 0 ]
				}

			}
, 			{
				"patchline" : 				{
					"destination" : [ "obj-34", 0 ],
					"disabled" : 0,
					"hidden" : 0,
					"midpoints" : [ 100.5, 329.5, 100.5, 329.5 ],
					"source" : [ "obj-6", 1 ]
				}

			}
, 			{
				"patchline" : 				{
					"destination" : [ "obj-35", 0 ],
					"disabled" : 0,
					"hidden" : 0,
					"source" : [ "obj-6", 0 ]
				}

			}
, 			{
				"patchline" : 				{
					"destination" : [ "obj-9", 1 ],
					"disabled" : 0,
					"hidden" : 0,
					"midpoints" : [ 299.5, 108.0, 240.5, 108.0 ],
					"source" : [ "obj-7", 1 ]
				}

			}
, 			{
				"patchline" : 				{
					"destination" : [ "obj-9", 0 ],
					"disabled" : 0,
					"hidden" : 0,
					"source" : [ "obj-7", 0 ]
				}

			}
, 			{
				"patchline" : 				{
					"destination" : [ "obj-81", 2 ],
					"disabled" : 0,
					"hidden" : 0,
					"midpoints" : [ 89.5, 46.0, 80.0, 46.0 ],
					"source" : [ "obj-70", 2 ]
				}

			}
, 			{
				"patchline" : 				{
					"destination" : [ "obj-81", 1 ],
					"disabled" : 0,
					"hidden" : 0,
					"source" : [ "obj-70", 1 ]
				}

			}
, 			{
				"patchline" : 				{
					"destination" : [ "obj-81", 0 ],
					"disabled" : 0,
					"hidden" : 0,
					"source" : [ "obj-70", 0 ]
				}

			}
, 			{
				"patchline" : 				{
					"destination" : [ "obj-7", 2 ],
					"disabled" : 0,
					"hidden" : 0,
					"midpoints" : [ 256.5, 44.0, 247.5, 44.0 ],
					"source" : [ "obj-8", 2 ]
				}

			}
, 			{
				"patchline" : 				{
					"destination" : [ "obj-7", 1 ],
					"disabled" : 0,
					"hidden" : 0,
					"source" : [ "obj-8", 1 ]
				}

			}
, 			{
				"patchline" : 				{
					"destination" : [ "obj-7", 0 ],
					"disabled" : 0,
					"hidden" : 0,
					"source" : [ "obj-8", 0 ]
				}

			}
, 			{
				"patchline" : 				{
					"destination" : [ "obj-86", 1 ],
					"disabled" : 0,
					"hidden" : 0,
					"midpoints" : [ 131.5, 110.0, 73.5, 110.0 ],
					"source" : [ "obj-81", 1 ]
				}

			}
, 			{
				"patchline" : 				{
					"destination" : [ "obj-86", 0 ],
					"disabled" : 0,
					"hidden" : 0,
					"source" : [ "obj-81", 0 ]
				}

			}
, 			{
				"patchline" : 				{
					"destination" : [ "obj-6", 1 ],
					"disabled" : 0,
					"hidden" : 0,
					"midpoints" : [ 163.5, 208.5, 100.5, 208.5 ],
					"source" : [ "obj-86", 1 ]
				}

			}
, 			{
				"patchline" : 				{
					"destination" : [ "obj-6", 0 ],
					"disabled" : 0,
					"hidden" : 0,
					"midpoints" : [ 28.5, 208.5, 28.5, 208.5 ],
					"source" : [ "obj-86", 0 ]
				}

			}
, 			{
				"patchline" : 				{
					"destination" : [ "obj-6", 1 ],
					"disabled" : 0,
					"hidden" : 0,
					"midpoints" : [ 330.5, 208.5, 100.5, 208.5 ],
					"source" : [ "obj-9", 1 ]
				}

			}
, 			{
				"patchline" : 				{
					"destination" : [ "obj-6", 0 ],
					"disabled" : 0,
					"hidden" : 0,
					"midpoints" : [ 195.5, 208.5, 28.5, 208.5 ],
					"source" : [ "obj-9", 0 ]
				}

			}
 ],
		"parameters" : 		{
			"obj-19::obj-3" : [ "live.gain~[6]", "live.gain~", 0 ],
			"obj-46::obj-3" : [ "live.gain~", "live.gain~", 0 ],
			"obj-16::obj-3" : [ "live.gain~[7]", "live.gain~", 0 ],
			"obj-6::obj-8" : [ "live.text", "live.text", 0 ],
			"obj-52::obj-3" : [ "live.gain~[3]", "live.gain~", 0 ],
			"obj-13::obj-3" : [ "live.gain~[8]", "live.gain~", 0 ],
			"obj-6::obj-9" : [ "live.gain~[1]", "live.gain~[1]", 0 ],
			"obj-55::obj-3" : [ "live.gain~[4]", "live.gain~", 0 ],
			"obj-58::obj-3" : [ "live.gain~[5]", "live.gain~", 0 ],
			"obj-49::obj-3" : [ "live.gain~[2]", "live.gain~", 0 ],
			"obj-86::obj-3" : [ "live.gain~[10]", "live.gain~", 0 ],
			"obj-9::obj-3" : [ "live.gain~[9]", "live.gain~", 0 ]
		}
,
		"dependency_cache" : [ 			{
				"name" : "vj.bufferplayback.maxpat",
				"bootpath" : "~/Dropbox/Working Projects/docs/_Publications/Books/FMT/_source/final/FMT/Foundations of Music Technology",
				"type" : "JSON",
				"implicit" : 1
			}
, 			{
				"name" : "vj.playbackcontrols_mini.maxpat",
				"bootpath" : "~/Dropbox/Working Projects/docs/_Publications/Books/FMT/_source/final/FMT/Foundations of Music Technology",
				"type" : "JSON",
				"implicit" : 1
			}
, 			{
				"name" : "mic_stop_u.png",
				"bootpath" : "~/Dropbox/Working Projects/docs/_Publications/Books/FMT/_source/final/FMT/Foundations of Music Technology",
				"type" : "PNG ",
				"implicit" : 1
			}
, 			{
				"name" : "mic_play_u.png",
				"bootpath" : "~/Dropbox/Working Projects/docs/_Publications/Books/FMT/_source/final/FMT/Foundations of Music Technology",
				"type" : "PNG ",
				"implicit" : 1
			}
, 			{
				"name" : "mic_rec_u.png",
				"bootpath" : "~/Dropbox/Working Projects/docs/_Publications/Books/FMT/_source/final/FMT/Foundations of Music Technology",
				"type" : "PNG ",
				"implicit" : 1
			}
, 			{
				"name" : "vj.scrubslider.maxpat",
				"bootpath" : "~/Dropbox/Working Projects/docs/_Publications/Books/FMT/_source/final/FMT/Foundations of Music Technology",
				"type" : "JSON",
				"implicit" : 1
			}
, 			{
				"name" : "vj.audiorecorder.maxpat",
				"bootpath" : "~/Dropbox/Working Projects/docs/_Publications/Books/FMT/_source/final/FMT/Foundations of Music Technology",
				"type" : "JSON",
				"implicit" : 1
			}
 ],
		"embedsnapshot" : 0
	}

}
